%TF.GenerationSoftware,KiCad,Pcbnew,7.0.2*%
%TF.CreationDate,2023-08-21T12:10:16-07:00*%
%TF.ProjectId,Macropad_Project,4d616372-6f70-4616-945f-50726f6a6563,rev?*%
%TF.SameCoordinates,Original*%
%TF.FileFunction,Legend,Bot*%
%TF.FilePolarity,Positive*%
%FSLAX46Y46*%
G04 Gerber Fmt 4.6, Leading zero omitted, Abs format (unit mm)*
G04 Created by KiCad (PCBNEW 7.0.2) date 2023-08-21 12:10:16*
%MOMM*%
%LPD*%
G01*
G04 APERTURE LIST*
%ADD10C,0.100000*%
%ADD11C,0.150000*%
%ADD12C,0.120000*%
G04 APERTURE END LIST*
D10*
%TO.C,RGB3*%
X95666666Y-41782619D02*
X95999999Y-41306428D01*
X96238094Y-41782619D02*
X96238094Y-40782619D01*
X96238094Y-40782619D02*
X95857142Y-40782619D01*
X95857142Y-40782619D02*
X95761904Y-40830238D01*
X95761904Y-40830238D02*
X95714285Y-40877857D01*
X95714285Y-40877857D02*
X95666666Y-40973095D01*
X95666666Y-40973095D02*
X95666666Y-41115952D01*
X95666666Y-41115952D02*
X95714285Y-41211190D01*
X95714285Y-41211190D02*
X95761904Y-41258809D01*
X95761904Y-41258809D02*
X95857142Y-41306428D01*
X95857142Y-41306428D02*
X96238094Y-41306428D01*
X94714285Y-40830238D02*
X94809523Y-40782619D01*
X94809523Y-40782619D02*
X94952380Y-40782619D01*
X94952380Y-40782619D02*
X95095237Y-40830238D01*
X95095237Y-40830238D02*
X95190475Y-40925476D01*
X95190475Y-40925476D02*
X95238094Y-41020714D01*
X95238094Y-41020714D02*
X95285713Y-41211190D01*
X95285713Y-41211190D02*
X95285713Y-41354047D01*
X95285713Y-41354047D02*
X95238094Y-41544523D01*
X95238094Y-41544523D02*
X95190475Y-41639761D01*
X95190475Y-41639761D02*
X95095237Y-41735000D01*
X95095237Y-41735000D02*
X94952380Y-41782619D01*
X94952380Y-41782619D02*
X94857142Y-41782619D01*
X94857142Y-41782619D02*
X94714285Y-41735000D01*
X94714285Y-41735000D02*
X94666666Y-41687380D01*
X94666666Y-41687380D02*
X94666666Y-41354047D01*
X94666666Y-41354047D02*
X94857142Y-41354047D01*
X93904761Y-41258809D02*
X93761904Y-41306428D01*
X93761904Y-41306428D02*
X93714285Y-41354047D01*
X93714285Y-41354047D02*
X93666666Y-41449285D01*
X93666666Y-41449285D02*
X93666666Y-41592142D01*
X93666666Y-41592142D02*
X93714285Y-41687380D01*
X93714285Y-41687380D02*
X93761904Y-41735000D01*
X93761904Y-41735000D02*
X93857142Y-41782619D01*
X93857142Y-41782619D02*
X94238094Y-41782619D01*
X94238094Y-41782619D02*
X94238094Y-40782619D01*
X94238094Y-40782619D02*
X93904761Y-40782619D01*
X93904761Y-40782619D02*
X93809523Y-40830238D01*
X93809523Y-40830238D02*
X93761904Y-40877857D01*
X93761904Y-40877857D02*
X93714285Y-40973095D01*
X93714285Y-40973095D02*
X93714285Y-41068333D01*
X93714285Y-41068333D02*
X93761904Y-41163571D01*
X93761904Y-41163571D02*
X93809523Y-41211190D01*
X93809523Y-41211190D02*
X93904761Y-41258809D01*
X93904761Y-41258809D02*
X94238094Y-41258809D01*
X93333332Y-40782619D02*
X92714285Y-40782619D01*
X92714285Y-40782619D02*
X93047618Y-41163571D01*
X93047618Y-41163571D02*
X92904761Y-41163571D01*
X92904761Y-41163571D02*
X92809523Y-41211190D01*
X92809523Y-41211190D02*
X92761904Y-41258809D01*
X92761904Y-41258809D02*
X92714285Y-41354047D01*
X92714285Y-41354047D02*
X92714285Y-41592142D01*
X92714285Y-41592142D02*
X92761904Y-41687380D01*
X92761904Y-41687380D02*
X92809523Y-41735000D01*
X92809523Y-41735000D02*
X92904761Y-41782619D01*
X92904761Y-41782619D02*
X93190475Y-41782619D01*
X93190475Y-41782619D02*
X93285713Y-41735000D01*
X93285713Y-41735000D02*
X93333332Y-41687380D01*
%TO.C,RGB4*%
X76626666Y-41782619D02*
X76959999Y-41306428D01*
X77198094Y-41782619D02*
X77198094Y-40782619D01*
X77198094Y-40782619D02*
X76817142Y-40782619D01*
X76817142Y-40782619D02*
X76721904Y-40830238D01*
X76721904Y-40830238D02*
X76674285Y-40877857D01*
X76674285Y-40877857D02*
X76626666Y-40973095D01*
X76626666Y-40973095D02*
X76626666Y-41115952D01*
X76626666Y-41115952D02*
X76674285Y-41211190D01*
X76674285Y-41211190D02*
X76721904Y-41258809D01*
X76721904Y-41258809D02*
X76817142Y-41306428D01*
X76817142Y-41306428D02*
X77198094Y-41306428D01*
X75674285Y-40830238D02*
X75769523Y-40782619D01*
X75769523Y-40782619D02*
X75912380Y-40782619D01*
X75912380Y-40782619D02*
X76055237Y-40830238D01*
X76055237Y-40830238D02*
X76150475Y-40925476D01*
X76150475Y-40925476D02*
X76198094Y-41020714D01*
X76198094Y-41020714D02*
X76245713Y-41211190D01*
X76245713Y-41211190D02*
X76245713Y-41354047D01*
X76245713Y-41354047D02*
X76198094Y-41544523D01*
X76198094Y-41544523D02*
X76150475Y-41639761D01*
X76150475Y-41639761D02*
X76055237Y-41735000D01*
X76055237Y-41735000D02*
X75912380Y-41782619D01*
X75912380Y-41782619D02*
X75817142Y-41782619D01*
X75817142Y-41782619D02*
X75674285Y-41735000D01*
X75674285Y-41735000D02*
X75626666Y-41687380D01*
X75626666Y-41687380D02*
X75626666Y-41354047D01*
X75626666Y-41354047D02*
X75817142Y-41354047D01*
X74864761Y-41258809D02*
X74721904Y-41306428D01*
X74721904Y-41306428D02*
X74674285Y-41354047D01*
X74674285Y-41354047D02*
X74626666Y-41449285D01*
X74626666Y-41449285D02*
X74626666Y-41592142D01*
X74626666Y-41592142D02*
X74674285Y-41687380D01*
X74674285Y-41687380D02*
X74721904Y-41735000D01*
X74721904Y-41735000D02*
X74817142Y-41782619D01*
X74817142Y-41782619D02*
X75198094Y-41782619D01*
X75198094Y-41782619D02*
X75198094Y-40782619D01*
X75198094Y-40782619D02*
X74864761Y-40782619D01*
X74864761Y-40782619D02*
X74769523Y-40830238D01*
X74769523Y-40830238D02*
X74721904Y-40877857D01*
X74721904Y-40877857D02*
X74674285Y-40973095D01*
X74674285Y-40973095D02*
X74674285Y-41068333D01*
X74674285Y-41068333D02*
X74721904Y-41163571D01*
X74721904Y-41163571D02*
X74769523Y-41211190D01*
X74769523Y-41211190D02*
X74864761Y-41258809D01*
X74864761Y-41258809D02*
X75198094Y-41258809D01*
X73769523Y-41115952D02*
X73769523Y-41782619D01*
X74007618Y-40735000D02*
X74245713Y-41449285D01*
X74245713Y-41449285D02*
X73626666Y-41449285D01*
D11*
%TO.C,D3*%
X122062619Y-27059405D02*
X121062619Y-27059405D01*
X121062619Y-27059405D02*
X121062619Y-27297500D01*
X121062619Y-27297500D02*
X121110238Y-27440357D01*
X121110238Y-27440357D02*
X121205476Y-27535595D01*
X121205476Y-27535595D02*
X121300714Y-27583214D01*
X121300714Y-27583214D02*
X121491190Y-27630833D01*
X121491190Y-27630833D02*
X121634047Y-27630833D01*
X121634047Y-27630833D02*
X121824523Y-27583214D01*
X121824523Y-27583214D02*
X121919761Y-27535595D01*
X121919761Y-27535595D02*
X122015000Y-27440357D01*
X122015000Y-27440357D02*
X122062619Y-27297500D01*
X122062619Y-27297500D02*
X122062619Y-27059405D01*
X121062619Y-27964167D02*
X121062619Y-28583214D01*
X121062619Y-28583214D02*
X121443571Y-28249881D01*
X121443571Y-28249881D02*
X121443571Y-28392738D01*
X121443571Y-28392738D02*
X121491190Y-28487976D01*
X121491190Y-28487976D02*
X121538809Y-28535595D01*
X121538809Y-28535595D02*
X121634047Y-28583214D01*
X121634047Y-28583214D02*
X121872142Y-28583214D01*
X121872142Y-28583214D02*
X121967380Y-28535595D01*
X121967380Y-28535595D02*
X122015000Y-28487976D01*
X122015000Y-28487976D02*
X122062619Y-28392738D01*
X122062619Y-28392738D02*
X122062619Y-28107024D01*
X122062619Y-28107024D02*
X122015000Y-28011786D01*
X122015000Y-28011786D02*
X121967380Y-27964167D01*
%TO.C,D7*%
X103012619Y-46111905D02*
X102012619Y-46111905D01*
X102012619Y-46111905D02*
X102012619Y-46350000D01*
X102012619Y-46350000D02*
X102060238Y-46492857D01*
X102060238Y-46492857D02*
X102155476Y-46588095D01*
X102155476Y-46588095D02*
X102250714Y-46635714D01*
X102250714Y-46635714D02*
X102441190Y-46683333D01*
X102441190Y-46683333D02*
X102584047Y-46683333D01*
X102584047Y-46683333D02*
X102774523Y-46635714D01*
X102774523Y-46635714D02*
X102869761Y-46588095D01*
X102869761Y-46588095D02*
X102965000Y-46492857D01*
X102965000Y-46492857D02*
X103012619Y-46350000D01*
X103012619Y-46350000D02*
X103012619Y-46111905D01*
X102012619Y-47016667D02*
X102012619Y-47683333D01*
X102012619Y-47683333D02*
X103012619Y-47254762D01*
%TO.C,D13*%
X103012619Y-64685714D02*
X102012619Y-64685714D01*
X102012619Y-64685714D02*
X102012619Y-64923809D01*
X102012619Y-64923809D02*
X102060238Y-65066666D01*
X102060238Y-65066666D02*
X102155476Y-65161904D01*
X102155476Y-65161904D02*
X102250714Y-65209523D01*
X102250714Y-65209523D02*
X102441190Y-65257142D01*
X102441190Y-65257142D02*
X102584047Y-65257142D01*
X102584047Y-65257142D02*
X102774523Y-65209523D01*
X102774523Y-65209523D02*
X102869761Y-65161904D01*
X102869761Y-65161904D02*
X102965000Y-65066666D01*
X102965000Y-65066666D02*
X103012619Y-64923809D01*
X103012619Y-64923809D02*
X103012619Y-64685714D01*
X103012619Y-66209523D02*
X103012619Y-65638095D01*
X103012619Y-65923809D02*
X102012619Y-65923809D01*
X102012619Y-65923809D02*
X102155476Y-65828571D01*
X102155476Y-65828571D02*
X102250714Y-65733333D01*
X102250714Y-65733333D02*
X102298333Y-65638095D01*
X102012619Y-66542857D02*
X102012619Y-67161904D01*
X102012619Y-67161904D02*
X102393571Y-66828571D01*
X102393571Y-66828571D02*
X102393571Y-66971428D01*
X102393571Y-66971428D02*
X102441190Y-67066666D01*
X102441190Y-67066666D02*
X102488809Y-67114285D01*
X102488809Y-67114285D02*
X102584047Y-67161904D01*
X102584047Y-67161904D02*
X102822142Y-67161904D01*
X102822142Y-67161904D02*
X102917380Y-67114285D01*
X102917380Y-67114285D02*
X102965000Y-67066666D01*
X102965000Y-67066666D02*
X103012619Y-66971428D01*
X103012619Y-66971428D02*
X103012619Y-66685714D01*
X103012619Y-66685714D02*
X102965000Y-66590476D01*
X102965000Y-66590476D02*
X102917380Y-66542857D01*
%TO.C,C10*%
X107292857Y-79089880D02*
X107340476Y-79137500D01*
X107340476Y-79137500D02*
X107483333Y-79185119D01*
X107483333Y-79185119D02*
X107578571Y-79185119D01*
X107578571Y-79185119D02*
X107721428Y-79137500D01*
X107721428Y-79137500D02*
X107816666Y-79042261D01*
X107816666Y-79042261D02*
X107864285Y-78947023D01*
X107864285Y-78947023D02*
X107911904Y-78756547D01*
X107911904Y-78756547D02*
X107911904Y-78613690D01*
X107911904Y-78613690D02*
X107864285Y-78423214D01*
X107864285Y-78423214D02*
X107816666Y-78327976D01*
X107816666Y-78327976D02*
X107721428Y-78232738D01*
X107721428Y-78232738D02*
X107578571Y-78185119D01*
X107578571Y-78185119D02*
X107483333Y-78185119D01*
X107483333Y-78185119D02*
X107340476Y-78232738D01*
X107340476Y-78232738D02*
X107292857Y-78280357D01*
X106340476Y-79185119D02*
X106911904Y-79185119D01*
X106626190Y-79185119D02*
X106626190Y-78185119D01*
X106626190Y-78185119D02*
X106721428Y-78327976D01*
X106721428Y-78327976D02*
X106816666Y-78423214D01*
X106816666Y-78423214D02*
X106911904Y-78470833D01*
X105721428Y-78185119D02*
X105626190Y-78185119D01*
X105626190Y-78185119D02*
X105530952Y-78232738D01*
X105530952Y-78232738D02*
X105483333Y-78280357D01*
X105483333Y-78280357D02*
X105435714Y-78375595D01*
X105435714Y-78375595D02*
X105388095Y-78566071D01*
X105388095Y-78566071D02*
X105388095Y-78804166D01*
X105388095Y-78804166D02*
X105435714Y-78994642D01*
X105435714Y-78994642D02*
X105483333Y-79089880D01*
X105483333Y-79089880D02*
X105530952Y-79137500D01*
X105530952Y-79137500D02*
X105626190Y-79185119D01*
X105626190Y-79185119D02*
X105721428Y-79185119D01*
X105721428Y-79185119D02*
X105816666Y-79137500D01*
X105816666Y-79137500D02*
X105864285Y-79089880D01*
X105864285Y-79089880D02*
X105911904Y-78994642D01*
X105911904Y-78994642D02*
X105959523Y-78804166D01*
X105959523Y-78804166D02*
X105959523Y-78566071D01*
X105959523Y-78566071D02*
X105911904Y-78375595D01*
X105911904Y-78375595D02*
X105864285Y-78280357D01*
X105864285Y-78280357D02*
X105816666Y-78232738D01*
X105816666Y-78232738D02*
X105721428Y-78185119D01*
%TO.C,D2*%
X103012619Y-27059405D02*
X102012619Y-27059405D01*
X102012619Y-27059405D02*
X102012619Y-27297500D01*
X102012619Y-27297500D02*
X102060238Y-27440357D01*
X102060238Y-27440357D02*
X102155476Y-27535595D01*
X102155476Y-27535595D02*
X102250714Y-27583214D01*
X102250714Y-27583214D02*
X102441190Y-27630833D01*
X102441190Y-27630833D02*
X102584047Y-27630833D01*
X102584047Y-27630833D02*
X102774523Y-27583214D01*
X102774523Y-27583214D02*
X102869761Y-27535595D01*
X102869761Y-27535595D02*
X102965000Y-27440357D01*
X102965000Y-27440357D02*
X103012619Y-27297500D01*
X103012619Y-27297500D02*
X103012619Y-27059405D01*
X102107857Y-28011786D02*
X102060238Y-28059405D01*
X102060238Y-28059405D02*
X102012619Y-28154643D01*
X102012619Y-28154643D02*
X102012619Y-28392738D01*
X102012619Y-28392738D02*
X102060238Y-28487976D01*
X102060238Y-28487976D02*
X102107857Y-28535595D01*
X102107857Y-28535595D02*
X102203095Y-28583214D01*
X102203095Y-28583214D02*
X102298333Y-28583214D01*
X102298333Y-28583214D02*
X102441190Y-28535595D01*
X102441190Y-28535595D02*
X103012619Y-27964167D01*
X103012619Y-27964167D02*
X103012619Y-28583214D01*
D10*
%TO.C,RGB6*%
X114716666Y-60812619D02*
X115049999Y-60336428D01*
X115288094Y-60812619D02*
X115288094Y-59812619D01*
X115288094Y-59812619D02*
X114907142Y-59812619D01*
X114907142Y-59812619D02*
X114811904Y-59860238D01*
X114811904Y-59860238D02*
X114764285Y-59907857D01*
X114764285Y-59907857D02*
X114716666Y-60003095D01*
X114716666Y-60003095D02*
X114716666Y-60145952D01*
X114716666Y-60145952D02*
X114764285Y-60241190D01*
X114764285Y-60241190D02*
X114811904Y-60288809D01*
X114811904Y-60288809D02*
X114907142Y-60336428D01*
X114907142Y-60336428D02*
X115288094Y-60336428D01*
X113764285Y-59860238D02*
X113859523Y-59812619D01*
X113859523Y-59812619D02*
X114002380Y-59812619D01*
X114002380Y-59812619D02*
X114145237Y-59860238D01*
X114145237Y-59860238D02*
X114240475Y-59955476D01*
X114240475Y-59955476D02*
X114288094Y-60050714D01*
X114288094Y-60050714D02*
X114335713Y-60241190D01*
X114335713Y-60241190D02*
X114335713Y-60384047D01*
X114335713Y-60384047D02*
X114288094Y-60574523D01*
X114288094Y-60574523D02*
X114240475Y-60669761D01*
X114240475Y-60669761D02*
X114145237Y-60765000D01*
X114145237Y-60765000D02*
X114002380Y-60812619D01*
X114002380Y-60812619D02*
X113907142Y-60812619D01*
X113907142Y-60812619D02*
X113764285Y-60765000D01*
X113764285Y-60765000D02*
X113716666Y-60717380D01*
X113716666Y-60717380D02*
X113716666Y-60384047D01*
X113716666Y-60384047D02*
X113907142Y-60384047D01*
X112954761Y-60288809D02*
X112811904Y-60336428D01*
X112811904Y-60336428D02*
X112764285Y-60384047D01*
X112764285Y-60384047D02*
X112716666Y-60479285D01*
X112716666Y-60479285D02*
X112716666Y-60622142D01*
X112716666Y-60622142D02*
X112764285Y-60717380D01*
X112764285Y-60717380D02*
X112811904Y-60765000D01*
X112811904Y-60765000D02*
X112907142Y-60812619D01*
X112907142Y-60812619D02*
X113288094Y-60812619D01*
X113288094Y-60812619D02*
X113288094Y-59812619D01*
X113288094Y-59812619D02*
X112954761Y-59812619D01*
X112954761Y-59812619D02*
X112859523Y-59860238D01*
X112859523Y-59860238D02*
X112811904Y-59907857D01*
X112811904Y-59907857D02*
X112764285Y-60003095D01*
X112764285Y-60003095D02*
X112764285Y-60098333D01*
X112764285Y-60098333D02*
X112811904Y-60193571D01*
X112811904Y-60193571D02*
X112859523Y-60241190D01*
X112859523Y-60241190D02*
X112954761Y-60288809D01*
X112954761Y-60288809D02*
X113288094Y-60288809D01*
X111859523Y-59812619D02*
X112049999Y-59812619D01*
X112049999Y-59812619D02*
X112145237Y-59860238D01*
X112145237Y-59860238D02*
X112192856Y-59907857D01*
X112192856Y-59907857D02*
X112288094Y-60050714D01*
X112288094Y-60050714D02*
X112335713Y-60241190D01*
X112335713Y-60241190D02*
X112335713Y-60622142D01*
X112335713Y-60622142D02*
X112288094Y-60717380D01*
X112288094Y-60717380D02*
X112240475Y-60765000D01*
X112240475Y-60765000D02*
X112145237Y-60812619D01*
X112145237Y-60812619D02*
X111954761Y-60812619D01*
X111954761Y-60812619D02*
X111859523Y-60765000D01*
X111859523Y-60765000D02*
X111811904Y-60717380D01*
X111811904Y-60717380D02*
X111764285Y-60622142D01*
X111764285Y-60622142D02*
X111764285Y-60384047D01*
X111764285Y-60384047D02*
X111811904Y-60288809D01*
X111811904Y-60288809D02*
X111859523Y-60241190D01*
X111859523Y-60241190D02*
X111954761Y-60193571D01*
X111954761Y-60193571D02*
X112145237Y-60193571D01*
X112145237Y-60193571D02*
X112240475Y-60241190D01*
X112240475Y-60241190D02*
X112288094Y-60288809D01*
X112288094Y-60288809D02*
X112335713Y-60384047D01*
D11*
%TO.C,D9*%
X141112619Y-46111905D02*
X140112619Y-46111905D01*
X140112619Y-46111905D02*
X140112619Y-46350000D01*
X140112619Y-46350000D02*
X140160238Y-46492857D01*
X140160238Y-46492857D02*
X140255476Y-46588095D01*
X140255476Y-46588095D02*
X140350714Y-46635714D01*
X140350714Y-46635714D02*
X140541190Y-46683333D01*
X140541190Y-46683333D02*
X140684047Y-46683333D01*
X140684047Y-46683333D02*
X140874523Y-46635714D01*
X140874523Y-46635714D02*
X140969761Y-46588095D01*
X140969761Y-46588095D02*
X141065000Y-46492857D01*
X141065000Y-46492857D02*
X141112619Y-46350000D01*
X141112619Y-46350000D02*
X141112619Y-46111905D01*
X141112619Y-47159524D02*
X141112619Y-47350000D01*
X141112619Y-47350000D02*
X141065000Y-47445238D01*
X141065000Y-47445238D02*
X141017380Y-47492857D01*
X141017380Y-47492857D02*
X140874523Y-47588095D01*
X140874523Y-47588095D02*
X140684047Y-47635714D01*
X140684047Y-47635714D02*
X140303095Y-47635714D01*
X140303095Y-47635714D02*
X140207857Y-47588095D01*
X140207857Y-47588095D02*
X140160238Y-47540476D01*
X140160238Y-47540476D02*
X140112619Y-47445238D01*
X140112619Y-47445238D02*
X140112619Y-47254762D01*
X140112619Y-47254762D02*
X140160238Y-47159524D01*
X140160238Y-47159524D02*
X140207857Y-47111905D01*
X140207857Y-47111905D02*
X140303095Y-47064286D01*
X140303095Y-47064286D02*
X140541190Y-47064286D01*
X140541190Y-47064286D02*
X140636428Y-47111905D01*
X140636428Y-47111905D02*
X140684047Y-47159524D01*
X140684047Y-47159524D02*
X140731666Y-47254762D01*
X140731666Y-47254762D02*
X140731666Y-47445238D01*
X140731666Y-47445238D02*
X140684047Y-47540476D01*
X140684047Y-47540476D02*
X140636428Y-47588095D01*
X140636428Y-47588095D02*
X140541190Y-47635714D01*
D10*
%TO.C,RGB9*%
X133766666Y-79862619D02*
X134099999Y-79386428D01*
X134338094Y-79862619D02*
X134338094Y-78862619D01*
X134338094Y-78862619D02*
X133957142Y-78862619D01*
X133957142Y-78862619D02*
X133861904Y-78910238D01*
X133861904Y-78910238D02*
X133814285Y-78957857D01*
X133814285Y-78957857D02*
X133766666Y-79053095D01*
X133766666Y-79053095D02*
X133766666Y-79195952D01*
X133766666Y-79195952D02*
X133814285Y-79291190D01*
X133814285Y-79291190D02*
X133861904Y-79338809D01*
X133861904Y-79338809D02*
X133957142Y-79386428D01*
X133957142Y-79386428D02*
X134338094Y-79386428D01*
X132814285Y-78910238D02*
X132909523Y-78862619D01*
X132909523Y-78862619D02*
X133052380Y-78862619D01*
X133052380Y-78862619D02*
X133195237Y-78910238D01*
X133195237Y-78910238D02*
X133290475Y-79005476D01*
X133290475Y-79005476D02*
X133338094Y-79100714D01*
X133338094Y-79100714D02*
X133385713Y-79291190D01*
X133385713Y-79291190D02*
X133385713Y-79434047D01*
X133385713Y-79434047D02*
X133338094Y-79624523D01*
X133338094Y-79624523D02*
X133290475Y-79719761D01*
X133290475Y-79719761D02*
X133195237Y-79815000D01*
X133195237Y-79815000D02*
X133052380Y-79862619D01*
X133052380Y-79862619D02*
X132957142Y-79862619D01*
X132957142Y-79862619D02*
X132814285Y-79815000D01*
X132814285Y-79815000D02*
X132766666Y-79767380D01*
X132766666Y-79767380D02*
X132766666Y-79434047D01*
X132766666Y-79434047D02*
X132957142Y-79434047D01*
X132004761Y-79338809D02*
X131861904Y-79386428D01*
X131861904Y-79386428D02*
X131814285Y-79434047D01*
X131814285Y-79434047D02*
X131766666Y-79529285D01*
X131766666Y-79529285D02*
X131766666Y-79672142D01*
X131766666Y-79672142D02*
X131814285Y-79767380D01*
X131814285Y-79767380D02*
X131861904Y-79815000D01*
X131861904Y-79815000D02*
X131957142Y-79862619D01*
X131957142Y-79862619D02*
X132338094Y-79862619D01*
X132338094Y-79862619D02*
X132338094Y-78862619D01*
X132338094Y-78862619D02*
X132004761Y-78862619D01*
X132004761Y-78862619D02*
X131909523Y-78910238D01*
X131909523Y-78910238D02*
X131861904Y-78957857D01*
X131861904Y-78957857D02*
X131814285Y-79053095D01*
X131814285Y-79053095D02*
X131814285Y-79148333D01*
X131814285Y-79148333D02*
X131861904Y-79243571D01*
X131861904Y-79243571D02*
X131909523Y-79291190D01*
X131909523Y-79291190D02*
X132004761Y-79338809D01*
X132004761Y-79338809D02*
X132338094Y-79338809D01*
X131290475Y-79862619D02*
X131099999Y-79862619D01*
X131099999Y-79862619D02*
X131004761Y-79815000D01*
X131004761Y-79815000D02*
X130957142Y-79767380D01*
X130957142Y-79767380D02*
X130861904Y-79624523D01*
X130861904Y-79624523D02*
X130814285Y-79434047D01*
X130814285Y-79434047D02*
X130814285Y-79053095D01*
X130814285Y-79053095D02*
X130861904Y-78957857D01*
X130861904Y-78957857D02*
X130909523Y-78910238D01*
X130909523Y-78910238D02*
X131004761Y-78862619D01*
X131004761Y-78862619D02*
X131195237Y-78862619D01*
X131195237Y-78862619D02*
X131290475Y-78910238D01*
X131290475Y-78910238D02*
X131338094Y-78957857D01*
X131338094Y-78957857D02*
X131385713Y-79053095D01*
X131385713Y-79053095D02*
X131385713Y-79291190D01*
X131385713Y-79291190D02*
X131338094Y-79386428D01*
X131338094Y-79386428D02*
X131290475Y-79434047D01*
X131290475Y-79434047D02*
X131195237Y-79481666D01*
X131195237Y-79481666D02*
X131004761Y-79481666D01*
X131004761Y-79481666D02*
X130909523Y-79434047D01*
X130909523Y-79434047D02*
X130861904Y-79386428D01*
X130861904Y-79386428D02*
X130814285Y-79291190D01*
D11*
%TO.C,D5*%
X151672619Y-31144405D02*
X150672619Y-31144405D01*
X150672619Y-31144405D02*
X150672619Y-31382500D01*
X150672619Y-31382500D02*
X150720238Y-31525357D01*
X150720238Y-31525357D02*
X150815476Y-31620595D01*
X150815476Y-31620595D02*
X150910714Y-31668214D01*
X150910714Y-31668214D02*
X151101190Y-31715833D01*
X151101190Y-31715833D02*
X151244047Y-31715833D01*
X151244047Y-31715833D02*
X151434523Y-31668214D01*
X151434523Y-31668214D02*
X151529761Y-31620595D01*
X151529761Y-31620595D02*
X151625000Y-31525357D01*
X151625000Y-31525357D02*
X151672619Y-31382500D01*
X151672619Y-31382500D02*
X151672619Y-31144405D01*
X150672619Y-32620595D02*
X150672619Y-32144405D01*
X150672619Y-32144405D02*
X151148809Y-32096786D01*
X151148809Y-32096786D02*
X151101190Y-32144405D01*
X151101190Y-32144405D02*
X151053571Y-32239643D01*
X151053571Y-32239643D02*
X151053571Y-32477738D01*
X151053571Y-32477738D02*
X151101190Y-32572976D01*
X151101190Y-32572976D02*
X151148809Y-32620595D01*
X151148809Y-32620595D02*
X151244047Y-32668214D01*
X151244047Y-32668214D02*
X151482142Y-32668214D01*
X151482142Y-32668214D02*
X151577380Y-32620595D01*
X151577380Y-32620595D02*
X151625000Y-32572976D01*
X151625000Y-32572976D02*
X151672619Y-32477738D01*
X151672619Y-32477738D02*
X151672619Y-32239643D01*
X151672619Y-32239643D02*
X151625000Y-32144405D01*
X151625000Y-32144405D02*
X151577380Y-32096786D01*
D10*
%TO.C,RGB11*%
X96142857Y-79862619D02*
X96476190Y-79386428D01*
X96714285Y-79862619D02*
X96714285Y-78862619D01*
X96714285Y-78862619D02*
X96333333Y-78862619D01*
X96333333Y-78862619D02*
X96238095Y-78910238D01*
X96238095Y-78910238D02*
X96190476Y-78957857D01*
X96190476Y-78957857D02*
X96142857Y-79053095D01*
X96142857Y-79053095D02*
X96142857Y-79195952D01*
X96142857Y-79195952D02*
X96190476Y-79291190D01*
X96190476Y-79291190D02*
X96238095Y-79338809D01*
X96238095Y-79338809D02*
X96333333Y-79386428D01*
X96333333Y-79386428D02*
X96714285Y-79386428D01*
X95190476Y-78910238D02*
X95285714Y-78862619D01*
X95285714Y-78862619D02*
X95428571Y-78862619D01*
X95428571Y-78862619D02*
X95571428Y-78910238D01*
X95571428Y-78910238D02*
X95666666Y-79005476D01*
X95666666Y-79005476D02*
X95714285Y-79100714D01*
X95714285Y-79100714D02*
X95761904Y-79291190D01*
X95761904Y-79291190D02*
X95761904Y-79434047D01*
X95761904Y-79434047D02*
X95714285Y-79624523D01*
X95714285Y-79624523D02*
X95666666Y-79719761D01*
X95666666Y-79719761D02*
X95571428Y-79815000D01*
X95571428Y-79815000D02*
X95428571Y-79862619D01*
X95428571Y-79862619D02*
X95333333Y-79862619D01*
X95333333Y-79862619D02*
X95190476Y-79815000D01*
X95190476Y-79815000D02*
X95142857Y-79767380D01*
X95142857Y-79767380D02*
X95142857Y-79434047D01*
X95142857Y-79434047D02*
X95333333Y-79434047D01*
X94380952Y-79338809D02*
X94238095Y-79386428D01*
X94238095Y-79386428D02*
X94190476Y-79434047D01*
X94190476Y-79434047D02*
X94142857Y-79529285D01*
X94142857Y-79529285D02*
X94142857Y-79672142D01*
X94142857Y-79672142D02*
X94190476Y-79767380D01*
X94190476Y-79767380D02*
X94238095Y-79815000D01*
X94238095Y-79815000D02*
X94333333Y-79862619D01*
X94333333Y-79862619D02*
X94714285Y-79862619D01*
X94714285Y-79862619D02*
X94714285Y-78862619D01*
X94714285Y-78862619D02*
X94380952Y-78862619D01*
X94380952Y-78862619D02*
X94285714Y-78910238D01*
X94285714Y-78910238D02*
X94238095Y-78957857D01*
X94238095Y-78957857D02*
X94190476Y-79053095D01*
X94190476Y-79053095D02*
X94190476Y-79148333D01*
X94190476Y-79148333D02*
X94238095Y-79243571D01*
X94238095Y-79243571D02*
X94285714Y-79291190D01*
X94285714Y-79291190D02*
X94380952Y-79338809D01*
X94380952Y-79338809D02*
X94714285Y-79338809D01*
X93190476Y-79862619D02*
X93761904Y-79862619D01*
X93476190Y-79862619D02*
X93476190Y-78862619D01*
X93476190Y-78862619D02*
X93571428Y-79005476D01*
X93571428Y-79005476D02*
X93666666Y-79100714D01*
X93666666Y-79100714D02*
X93761904Y-79148333D01*
X92238095Y-79862619D02*
X92809523Y-79862619D01*
X92523809Y-79862619D02*
X92523809Y-78862619D01*
X92523809Y-78862619D02*
X92619047Y-79005476D01*
X92619047Y-79005476D02*
X92714285Y-79100714D01*
X92714285Y-79100714D02*
X92809523Y-79148333D01*
%TO.C,RGB10*%
X115192857Y-79862619D02*
X115526190Y-79386428D01*
X115764285Y-79862619D02*
X115764285Y-78862619D01*
X115764285Y-78862619D02*
X115383333Y-78862619D01*
X115383333Y-78862619D02*
X115288095Y-78910238D01*
X115288095Y-78910238D02*
X115240476Y-78957857D01*
X115240476Y-78957857D02*
X115192857Y-79053095D01*
X115192857Y-79053095D02*
X115192857Y-79195952D01*
X115192857Y-79195952D02*
X115240476Y-79291190D01*
X115240476Y-79291190D02*
X115288095Y-79338809D01*
X115288095Y-79338809D02*
X115383333Y-79386428D01*
X115383333Y-79386428D02*
X115764285Y-79386428D01*
X114240476Y-78910238D02*
X114335714Y-78862619D01*
X114335714Y-78862619D02*
X114478571Y-78862619D01*
X114478571Y-78862619D02*
X114621428Y-78910238D01*
X114621428Y-78910238D02*
X114716666Y-79005476D01*
X114716666Y-79005476D02*
X114764285Y-79100714D01*
X114764285Y-79100714D02*
X114811904Y-79291190D01*
X114811904Y-79291190D02*
X114811904Y-79434047D01*
X114811904Y-79434047D02*
X114764285Y-79624523D01*
X114764285Y-79624523D02*
X114716666Y-79719761D01*
X114716666Y-79719761D02*
X114621428Y-79815000D01*
X114621428Y-79815000D02*
X114478571Y-79862619D01*
X114478571Y-79862619D02*
X114383333Y-79862619D01*
X114383333Y-79862619D02*
X114240476Y-79815000D01*
X114240476Y-79815000D02*
X114192857Y-79767380D01*
X114192857Y-79767380D02*
X114192857Y-79434047D01*
X114192857Y-79434047D02*
X114383333Y-79434047D01*
X113430952Y-79338809D02*
X113288095Y-79386428D01*
X113288095Y-79386428D02*
X113240476Y-79434047D01*
X113240476Y-79434047D02*
X113192857Y-79529285D01*
X113192857Y-79529285D02*
X113192857Y-79672142D01*
X113192857Y-79672142D02*
X113240476Y-79767380D01*
X113240476Y-79767380D02*
X113288095Y-79815000D01*
X113288095Y-79815000D02*
X113383333Y-79862619D01*
X113383333Y-79862619D02*
X113764285Y-79862619D01*
X113764285Y-79862619D02*
X113764285Y-78862619D01*
X113764285Y-78862619D02*
X113430952Y-78862619D01*
X113430952Y-78862619D02*
X113335714Y-78910238D01*
X113335714Y-78910238D02*
X113288095Y-78957857D01*
X113288095Y-78957857D02*
X113240476Y-79053095D01*
X113240476Y-79053095D02*
X113240476Y-79148333D01*
X113240476Y-79148333D02*
X113288095Y-79243571D01*
X113288095Y-79243571D02*
X113335714Y-79291190D01*
X113335714Y-79291190D02*
X113430952Y-79338809D01*
X113430952Y-79338809D02*
X113764285Y-79338809D01*
X112240476Y-79862619D02*
X112811904Y-79862619D01*
X112526190Y-79862619D02*
X112526190Y-78862619D01*
X112526190Y-78862619D02*
X112621428Y-79005476D01*
X112621428Y-79005476D02*
X112716666Y-79100714D01*
X112716666Y-79100714D02*
X112811904Y-79148333D01*
X111621428Y-78862619D02*
X111526190Y-78862619D01*
X111526190Y-78862619D02*
X111430952Y-78910238D01*
X111430952Y-78910238D02*
X111383333Y-78957857D01*
X111383333Y-78957857D02*
X111335714Y-79053095D01*
X111335714Y-79053095D02*
X111288095Y-79243571D01*
X111288095Y-79243571D02*
X111288095Y-79481666D01*
X111288095Y-79481666D02*
X111335714Y-79672142D01*
X111335714Y-79672142D02*
X111383333Y-79767380D01*
X111383333Y-79767380D02*
X111430952Y-79815000D01*
X111430952Y-79815000D02*
X111526190Y-79862619D01*
X111526190Y-79862619D02*
X111621428Y-79862619D01*
X111621428Y-79862619D02*
X111716666Y-79815000D01*
X111716666Y-79815000D02*
X111764285Y-79767380D01*
X111764285Y-79767380D02*
X111811904Y-79672142D01*
X111811904Y-79672142D02*
X111859523Y-79481666D01*
X111859523Y-79481666D02*
X111859523Y-79243571D01*
X111859523Y-79243571D02*
X111811904Y-79053095D01*
X111811904Y-79053095D02*
X111764285Y-78957857D01*
X111764285Y-78957857D02*
X111716666Y-78910238D01*
X111716666Y-78910238D02*
X111621428Y-78862619D01*
%TO.C,RGB5*%
X133766666Y-60812619D02*
X134099999Y-60336428D01*
X134338094Y-60812619D02*
X134338094Y-59812619D01*
X134338094Y-59812619D02*
X133957142Y-59812619D01*
X133957142Y-59812619D02*
X133861904Y-59860238D01*
X133861904Y-59860238D02*
X133814285Y-59907857D01*
X133814285Y-59907857D02*
X133766666Y-60003095D01*
X133766666Y-60003095D02*
X133766666Y-60145952D01*
X133766666Y-60145952D02*
X133814285Y-60241190D01*
X133814285Y-60241190D02*
X133861904Y-60288809D01*
X133861904Y-60288809D02*
X133957142Y-60336428D01*
X133957142Y-60336428D02*
X134338094Y-60336428D01*
X132814285Y-59860238D02*
X132909523Y-59812619D01*
X132909523Y-59812619D02*
X133052380Y-59812619D01*
X133052380Y-59812619D02*
X133195237Y-59860238D01*
X133195237Y-59860238D02*
X133290475Y-59955476D01*
X133290475Y-59955476D02*
X133338094Y-60050714D01*
X133338094Y-60050714D02*
X133385713Y-60241190D01*
X133385713Y-60241190D02*
X133385713Y-60384047D01*
X133385713Y-60384047D02*
X133338094Y-60574523D01*
X133338094Y-60574523D02*
X133290475Y-60669761D01*
X133290475Y-60669761D02*
X133195237Y-60765000D01*
X133195237Y-60765000D02*
X133052380Y-60812619D01*
X133052380Y-60812619D02*
X132957142Y-60812619D01*
X132957142Y-60812619D02*
X132814285Y-60765000D01*
X132814285Y-60765000D02*
X132766666Y-60717380D01*
X132766666Y-60717380D02*
X132766666Y-60384047D01*
X132766666Y-60384047D02*
X132957142Y-60384047D01*
X132004761Y-60288809D02*
X131861904Y-60336428D01*
X131861904Y-60336428D02*
X131814285Y-60384047D01*
X131814285Y-60384047D02*
X131766666Y-60479285D01*
X131766666Y-60479285D02*
X131766666Y-60622142D01*
X131766666Y-60622142D02*
X131814285Y-60717380D01*
X131814285Y-60717380D02*
X131861904Y-60765000D01*
X131861904Y-60765000D02*
X131957142Y-60812619D01*
X131957142Y-60812619D02*
X132338094Y-60812619D01*
X132338094Y-60812619D02*
X132338094Y-59812619D01*
X132338094Y-59812619D02*
X132004761Y-59812619D01*
X132004761Y-59812619D02*
X131909523Y-59860238D01*
X131909523Y-59860238D02*
X131861904Y-59907857D01*
X131861904Y-59907857D02*
X131814285Y-60003095D01*
X131814285Y-60003095D02*
X131814285Y-60098333D01*
X131814285Y-60098333D02*
X131861904Y-60193571D01*
X131861904Y-60193571D02*
X131909523Y-60241190D01*
X131909523Y-60241190D02*
X132004761Y-60288809D01*
X132004761Y-60288809D02*
X132338094Y-60288809D01*
X130861904Y-59812619D02*
X131338094Y-59812619D01*
X131338094Y-59812619D02*
X131385713Y-60288809D01*
X131385713Y-60288809D02*
X131338094Y-60241190D01*
X131338094Y-60241190D02*
X131242856Y-60193571D01*
X131242856Y-60193571D02*
X131004761Y-60193571D01*
X131004761Y-60193571D02*
X130909523Y-60241190D01*
X130909523Y-60241190D02*
X130861904Y-60288809D01*
X130861904Y-60288809D02*
X130814285Y-60384047D01*
X130814285Y-60384047D02*
X130814285Y-60622142D01*
X130814285Y-60622142D02*
X130861904Y-60717380D01*
X130861904Y-60717380D02*
X130909523Y-60765000D01*
X130909523Y-60765000D02*
X131004761Y-60812619D01*
X131004761Y-60812619D02*
X131242856Y-60812619D01*
X131242856Y-60812619D02*
X131338094Y-60765000D01*
X131338094Y-60765000D02*
X131385713Y-60717380D01*
D11*
%TO.C,D1*%
X83962619Y-27059405D02*
X82962619Y-27059405D01*
X82962619Y-27059405D02*
X82962619Y-27297500D01*
X82962619Y-27297500D02*
X83010238Y-27440357D01*
X83010238Y-27440357D02*
X83105476Y-27535595D01*
X83105476Y-27535595D02*
X83200714Y-27583214D01*
X83200714Y-27583214D02*
X83391190Y-27630833D01*
X83391190Y-27630833D02*
X83534047Y-27630833D01*
X83534047Y-27630833D02*
X83724523Y-27583214D01*
X83724523Y-27583214D02*
X83819761Y-27535595D01*
X83819761Y-27535595D02*
X83915000Y-27440357D01*
X83915000Y-27440357D02*
X83962619Y-27297500D01*
X83962619Y-27297500D02*
X83962619Y-27059405D01*
X83962619Y-28583214D02*
X83962619Y-28011786D01*
X83962619Y-28297500D02*
X82962619Y-28297500D01*
X82962619Y-28297500D02*
X83105476Y-28202262D01*
X83105476Y-28202262D02*
X83200714Y-28107024D01*
X83200714Y-28107024D02*
X83248333Y-28011786D01*
%TO.C,D15*%
X141112619Y-64685714D02*
X140112619Y-64685714D01*
X140112619Y-64685714D02*
X140112619Y-64923809D01*
X140112619Y-64923809D02*
X140160238Y-65066666D01*
X140160238Y-65066666D02*
X140255476Y-65161904D01*
X140255476Y-65161904D02*
X140350714Y-65209523D01*
X140350714Y-65209523D02*
X140541190Y-65257142D01*
X140541190Y-65257142D02*
X140684047Y-65257142D01*
X140684047Y-65257142D02*
X140874523Y-65209523D01*
X140874523Y-65209523D02*
X140969761Y-65161904D01*
X140969761Y-65161904D02*
X141065000Y-65066666D01*
X141065000Y-65066666D02*
X141112619Y-64923809D01*
X141112619Y-64923809D02*
X141112619Y-64685714D01*
X141112619Y-66209523D02*
X141112619Y-65638095D01*
X141112619Y-65923809D02*
X140112619Y-65923809D01*
X140112619Y-65923809D02*
X140255476Y-65828571D01*
X140255476Y-65828571D02*
X140350714Y-65733333D01*
X140350714Y-65733333D02*
X140398333Y-65638095D01*
X140112619Y-67114285D02*
X140112619Y-66638095D01*
X140112619Y-66638095D02*
X140588809Y-66590476D01*
X140588809Y-66590476D02*
X140541190Y-66638095D01*
X140541190Y-66638095D02*
X140493571Y-66733333D01*
X140493571Y-66733333D02*
X140493571Y-66971428D01*
X140493571Y-66971428D02*
X140541190Y-67066666D01*
X140541190Y-67066666D02*
X140588809Y-67114285D01*
X140588809Y-67114285D02*
X140684047Y-67161904D01*
X140684047Y-67161904D02*
X140922142Y-67161904D01*
X140922142Y-67161904D02*
X141017380Y-67114285D01*
X141017380Y-67114285D02*
X141065000Y-67066666D01*
X141065000Y-67066666D02*
X141112619Y-66971428D01*
X141112619Y-66971428D02*
X141112619Y-66733333D01*
X141112619Y-66733333D02*
X141065000Y-66638095D01*
X141065000Y-66638095D02*
X141017380Y-66590476D01*
D10*
%TO.C,RGB13*%
X58042857Y-79862619D02*
X58376190Y-79386428D01*
X58614285Y-79862619D02*
X58614285Y-78862619D01*
X58614285Y-78862619D02*
X58233333Y-78862619D01*
X58233333Y-78862619D02*
X58138095Y-78910238D01*
X58138095Y-78910238D02*
X58090476Y-78957857D01*
X58090476Y-78957857D02*
X58042857Y-79053095D01*
X58042857Y-79053095D02*
X58042857Y-79195952D01*
X58042857Y-79195952D02*
X58090476Y-79291190D01*
X58090476Y-79291190D02*
X58138095Y-79338809D01*
X58138095Y-79338809D02*
X58233333Y-79386428D01*
X58233333Y-79386428D02*
X58614285Y-79386428D01*
X57090476Y-78910238D02*
X57185714Y-78862619D01*
X57185714Y-78862619D02*
X57328571Y-78862619D01*
X57328571Y-78862619D02*
X57471428Y-78910238D01*
X57471428Y-78910238D02*
X57566666Y-79005476D01*
X57566666Y-79005476D02*
X57614285Y-79100714D01*
X57614285Y-79100714D02*
X57661904Y-79291190D01*
X57661904Y-79291190D02*
X57661904Y-79434047D01*
X57661904Y-79434047D02*
X57614285Y-79624523D01*
X57614285Y-79624523D02*
X57566666Y-79719761D01*
X57566666Y-79719761D02*
X57471428Y-79815000D01*
X57471428Y-79815000D02*
X57328571Y-79862619D01*
X57328571Y-79862619D02*
X57233333Y-79862619D01*
X57233333Y-79862619D02*
X57090476Y-79815000D01*
X57090476Y-79815000D02*
X57042857Y-79767380D01*
X57042857Y-79767380D02*
X57042857Y-79434047D01*
X57042857Y-79434047D02*
X57233333Y-79434047D01*
X56280952Y-79338809D02*
X56138095Y-79386428D01*
X56138095Y-79386428D02*
X56090476Y-79434047D01*
X56090476Y-79434047D02*
X56042857Y-79529285D01*
X56042857Y-79529285D02*
X56042857Y-79672142D01*
X56042857Y-79672142D02*
X56090476Y-79767380D01*
X56090476Y-79767380D02*
X56138095Y-79815000D01*
X56138095Y-79815000D02*
X56233333Y-79862619D01*
X56233333Y-79862619D02*
X56614285Y-79862619D01*
X56614285Y-79862619D02*
X56614285Y-78862619D01*
X56614285Y-78862619D02*
X56280952Y-78862619D01*
X56280952Y-78862619D02*
X56185714Y-78910238D01*
X56185714Y-78910238D02*
X56138095Y-78957857D01*
X56138095Y-78957857D02*
X56090476Y-79053095D01*
X56090476Y-79053095D02*
X56090476Y-79148333D01*
X56090476Y-79148333D02*
X56138095Y-79243571D01*
X56138095Y-79243571D02*
X56185714Y-79291190D01*
X56185714Y-79291190D02*
X56280952Y-79338809D01*
X56280952Y-79338809D02*
X56614285Y-79338809D01*
X55090476Y-79862619D02*
X55661904Y-79862619D01*
X55376190Y-79862619D02*
X55376190Y-78862619D01*
X55376190Y-78862619D02*
X55471428Y-79005476D01*
X55471428Y-79005476D02*
X55566666Y-79100714D01*
X55566666Y-79100714D02*
X55661904Y-79148333D01*
X54757142Y-78862619D02*
X54138095Y-78862619D01*
X54138095Y-78862619D02*
X54471428Y-79243571D01*
X54471428Y-79243571D02*
X54328571Y-79243571D01*
X54328571Y-79243571D02*
X54233333Y-79291190D01*
X54233333Y-79291190D02*
X54185714Y-79338809D01*
X54185714Y-79338809D02*
X54138095Y-79434047D01*
X54138095Y-79434047D02*
X54138095Y-79672142D01*
X54138095Y-79672142D02*
X54185714Y-79767380D01*
X54185714Y-79767380D02*
X54233333Y-79815000D01*
X54233333Y-79815000D02*
X54328571Y-79862619D01*
X54328571Y-79862619D02*
X54614285Y-79862619D01*
X54614285Y-79862619D02*
X54709523Y-79815000D01*
X54709523Y-79815000D02*
X54757142Y-79767380D01*
D11*
%TO.C,C9*%
X125866666Y-79089880D02*
X125914285Y-79137500D01*
X125914285Y-79137500D02*
X126057142Y-79185119D01*
X126057142Y-79185119D02*
X126152380Y-79185119D01*
X126152380Y-79185119D02*
X126295237Y-79137500D01*
X126295237Y-79137500D02*
X126390475Y-79042261D01*
X126390475Y-79042261D02*
X126438094Y-78947023D01*
X126438094Y-78947023D02*
X126485713Y-78756547D01*
X126485713Y-78756547D02*
X126485713Y-78613690D01*
X126485713Y-78613690D02*
X126438094Y-78423214D01*
X126438094Y-78423214D02*
X126390475Y-78327976D01*
X126390475Y-78327976D02*
X126295237Y-78232738D01*
X126295237Y-78232738D02*
X126152380Y-78185119D01*
X126152380Y-78185119D02*
X126057142Y-78185119D01*
X126057142Y-78185119D02*
X125914285Y-78232738D01*
X125914285Y-78232738D02*
X125866666Y-78280357D01*
X125390475Y-79185119D02*
X125199999Y-79185119D01*
X125199999Y-79185119D02*
X125104761Y-79137500D01*
X125104761Y-79137500D02*
X125057142Y-79089880D01*
X125057142Y-79089880D02*
X124961904Y-78947023D01*
X124961904Y-78947023D02*
X124914285Y-78756547D01*
X124914285Y-78756547D02*
X124914285Y-78375595D01*
X124914285Y-78375595D02*
X124961904Y-78280357D01*
X124961904Y-78280357D02*
X125009523Y-78232738D01*
X125009523Y-78232738D02*
X125104761Y-78185119D01*
X125104761Y-78185119D02*
X125295237Y-78185119D01*
X125295237Y-78185119D02*
X125390475Y-78232738D01*
X125390475Y-78232738D02*
X125438094Y-78280357D01*
X125438094Y-78280357D02*
X125485713Y-78375595D01*
X125485713Y-78375595D02*
X125485713Y-78613690D01*
X125485713Y-78613690D02*
X125438094Y-78708928D01*
X125438094Y-78708928D02*
X125390475Y-78756547D01*
X125390475Y-78756547D02*
X125295237Y-78804166D01*
X125295237Y-78804166D02*
X125104761Y-78804166D01*
X125104761Y-78804166D02*
X125009523Y-78756547D01*
X125009523Y-78756547D02*
X124961904Y-78708928D01*
X124961904Y-78708928D02*
X124914285Y-78613690D01*
%TO.C,C5*%
X70366666Y-60127380D02*
X70414285Y-60175000D01*
X70414285Y-60175000D02*
X70557142Y-60222619D01*
X70557142Y-60222619D02*
X70652380Y-60222619D01*
X70652380Y-60222619D02*
X70795237Y-60175000D01*
X70795237Y-60175000D02*
X70890475Y-60079761D01*
X70890475Y-60079761D02*
X70938094Y-59984523D01*
X70938094Y-59984523D02*
X70985713Y-59794047D01*
X70985713Y-59794047D02*
X70985713Y-59651190D01*
X70985713Y-59651190D02*
X70938094Y-59460714D01*
X70938094Y-59460714D02*
X70890475Y-59365476D01*
X70890475Y-59365476D02*
X70795237Y-59270238D01*
X70795237Y-59270238D02*
X70652380Y-59222619D01*
X70652380Y-59222619D02*
X70557142Y-59222619D01*
X70557142Y-59222619D02*
X70414285Y-59270238D01*
X70414285Y-59270238D02*
X70366666Y-59317857D01*
X69461904Y-59222619D02*
X69938094Y-59222619D01*
X69938094Y-59222619D02*
X69985713Y-59698809D01*
X69985713Y-59698809D02*
X69938094Y-59651190D01*
X69938094Y-59651190D02*
X69842856Y-59603571D01*
X69842856Y-59603571D02*
X69604761Y-59603571D01*
X69604761Y-59603571D02*
X69509523Y-59651190D01*
X69509523Y-59651190D02*
X69461904Y-59698809D01*
X69461904Y-59698809D02*
X69414285Y-59794047D01*
X69414285Y-59794047D02*
X69414285Y-60032142D01*
X69414285Y-60032142D02*
X69461904Y-60127380D01*
X69461904Y-60127380D02*
X69509523Y-60175000D01*
X69509523Y-60175000D02*
X69604761Y-60222619D01*
X69604761Y-60222619D02*
X69842856Y-60222619D01*
X69842856Y-60222619D02*
X69938094Y-60175000D01*
X69938094Y-60175000D02*
X69985713Y-60127380D01*
%TO.C,C1*%
X125850476Y-40949880D02*
X125898095Y-40997500D01*
X125898095Y-40997500D02*
X126040952Y-41045119D01*
X126040952Y-41045119D02*
X126136190Y-41045119D01*
X126136190Y-41045119D02*
X126279047Y-40997500D01*
X126279047Y-40997500D02*
X126374285Y-40902261D01*
X126374285Y-40902261D02*
X126421904Y-40807023D01*
X126421904Y-40807023D02*
X126469523Y-40616547D01*
X126469523Y-40616547D02*
X126469523Y-40473690D01*
X126469523Y-40473690D02*
X126421904Y-40283214D01*
X126421904Y-40283214D02*
X126374285Y-40187976D01*
X126374285Y-40187976D02*
X126279047Y-40092738D01*
X126279047Y-40092738D02*
X126136190Y-40045119D01*
X126136190Y-40045119D02*
X126040952Y-40045119D01*
X126040952Y-40045119D02*
X125898095Y-40092738D01*
X125898095Y-40092738D02*
X125850476Y-40140357D01*
X124898095Y-41045119D02*
X125469523Y-41045119D01*
X125183809Y-41045119D02*
X125183809Y-40045119D01*
X125183809Y-40045119D02*
X125279047Y-40187976D01*
X125279047Y-40187976D02*
X125374285Y-40283214D01*
X125374285Y-40283214D02*
X125469523Y-40330833D01*
D10*
%TO.C,RGB12*%
X77102857Y-79862619D02*
X77436190Y-79386428D01*
X77674285Y-79862619D02*
X77674285Y-78862619D01*
X77674285Y-78862619D02*
X77293333Y-78862619D01*
X77293333Y-78862619D02*
X77198095Y-78910238D01*
X77198095Y-78910238D02*
X77150476Y-78957857D01*
X77150476Y-78957857D02*
X77102857Y-79053095D01*
X77102857Y-79053095D02*
X77102857Y-79195952D01*
X77102857Y-79195952D02*
X77150476Y-79291190D01*
X77150476Y-79291190D02*
X77198095Y-79338809D01*
X77198095Y-79338809D02*
X77293333Y-79386428D01*
X77293333Y-79386428D02*
X77674285Y-79386428D01*
X76150476Y-78910238D02*
X76245714Y-78862619D01*
X76245714Y-78862619D02*
X76388571Y-78862619D01*
X76388571Y-78862619D02*
X76531428Y-78910238D01*
X76531428Y-78910238D02*
X76626666Y-79005476D01*
X76626666Y-79005476D02*
X76674285Y-79100714D01*
X76674285Y-79100714D02*
X76721904Y-79291190D01*
X76721904Y-79291190D02*
X76721904Y-79434047D01*
X76721904Y-79434047D02*
X76674285Y-79624523D01*
X76674285Y-79624523D02*
X76626666Y-79719761D01*
X76626666Y-79719761D02*
X76531428Y-79815000D01*
X76531428Y-79815000D02*
X76388571Y-79862619D01*
X76388571Y-79862619D02*
X76293333Y-79862619D01*
X76293333Y-79862619D02*
X76150476Y-79815000D01*
X76150476Y-79815000D02*
X76102857Y-79767380D01*
X76102857Y-79767380D02*
X76102857Y-79434047D01*
X76102857Y-79434047D02*
X76293333Y-79434047D01*
X75340952Y-79338809D02*
X75198095Y-79386428D01*
X75198095Y-79386428D02*
X75150476Y-79434047D01*
X75150476Y-79434047D02*
X75102857Y-79529285D01*
X75102857Y-79529285D02*
X75102857Y-79672142D01*
X75102857Y-79672142D02*
X75150476Y-79767380D01*
X75150476Y-79767380D02*
X75198095Y-79815000D01*
X75198095Y-79815000D02*
X75293333Y-79862619D01*
X75293333Y-79862619D02*
X75674285Y-79862619D01*
X75674285Y-79862619D02*
X75674285Y-78862619D01*
X75674285Y-78862619D02*
X75340952Y-78862619D01*
X75340952Y-78862619D02*
X75245714Y-78910238D01*
X75245714Y-78910238D02*
X75198095Y-78957857D01*
X75198095Y-78957857D02*
X75150476Y-79053095D01*
X75150476Y-79053095D02*
X75150476Y-79148333D01*
X75150476Y-79148333D02*
X75198095Y-79243571D01*
X75198095Y-79243571D02*
X75245714Y-79291190D01*
X75245714Y-79291190D02*
X75340952Y-79338809D01*
X75340952Y-79338809D02*
X75674285Y-79338809D01*
X74150476Y-79862619D02*
X74721904Y-79862619D01*
X74436190Y-79862619D02*
X74436190Y-78862619D01*
X74436190Y-78862619D02*
X74531428Y-79005476D01*
X74531428Y-79005476D02*
X74626666Y-79100714D01*
X74626666Y-79100714D02*
X74721904Y-79148333D01*
X73769523Y-78957857D02*
X73721904Y-78910238D01*
X73721904Y-78910238D02*
X73626666Y-78862619D01*
X73626666Y-78862619D02*
X73388571Y-78862619D01*
X73388571Y-78862619D02*
X73293333Y-78910238D01*
X73293333Y-78910238D02*
X73245714Y-78957857D01*
X73245714Y-78957857D02*
X73198095Y-79053095D01*
X73198095Y-79053095D02*
X73198095Y-79148333D01*
X73198095Y-79148333D02*
X73245714Y-79291190D01*
X73245714Y-79291190D02*
X73817142Y-79862619D01*
X73817142Y-79862619D02*
X73198095Y-79862619D01*
D11*
%TO.C,C7*%
X106766666Y-60014880D02*
X106814285Y-60062500D01*
X106814285Y-60062500D02*
X106957142Y-60110119D01*
X106957142Y-60110119D02*
X107052380Y-60110119D01*
X107052380Y-60110119D02*
X107195237Y-60062500D01*
X107195237Y-60062500D02*
X107290475Y-59967261D01*
X107290475Y-59967261D02*
X107338094Y-59872023D01*
X107338094Y-59872023D02*
X107385713Y-59681547D01*
X107385713Y-59681547D02*
X107385713Y-59538690D01*
X107385713Y-59538690D02*
X107338094Y-59348214D01*
X107338094Y-59348214D02*
X107290475Y-59252976D01*
X107290475Y-59252976D02*
X107195237Y-59157738D01*
X107195237Y-59157738D02*
X107052380Y-59110119D01*
X107052380Y-59110119D02*
X106957142Y-59110119D01*
X106957142Y-59110119D02*
X106814285Y-59157738D01*
X106814285Y-59157738D02*
X106766666Y-59205357D01*
X106433332Y-59110119D02*
X105766666Y-59110119D01*
X105766666Y-59110119D02*
X106195237Y-60110119D01*
%TO.C,D6*%
X83962619Y-46111905D02*
X82962619Y-46111905D01*
X82962619Y-46111905D02*
X82962619Y-46350000D01*
X82962619Y-46350000D02*
X83010238Y-46492857D01*
X83010238Y-46492857D02*
X83105476Y-46588095D01*
X83105476Y-46588095D02*
X83200714Y-46635714D01*
X83200714Y-46635714D02*
X83391190Y-46683333D01*
X83391190Y-46683333D02*
X83534047Y-46683333D01*
X83534047Y-46683333D02*
X83724523Y-46635714D01*
X83724523Y-46635714D02*
X83819761Y-46588095D01*
X83819761Y-46588095D02*
X83915000Y-46492857D01*
X83915000Y-46492857D02*
X83962619Y-46350000D01*
X83962619Y-46350000D02*
X83962619Y-46111905D01*
X82962619Y-47540476D02*
X82962619Y-47350000D01*
X82962619Y-47350000D02*
X83010238Y-47254762D01*
X83010238Y-47254762D02*
X83057857Y-47207143D01*
X83057857Y-47207143D02*
X83200714Y-47111905D01*
X83200714Y-47111905D02*
X83391190Y-47064286D01*
X83391190Y-47064286D02*
X83772142Y-47064286D01*
X83772142Y-47064286D02*
X83867380Y-47111905D01*
X83867380Y-47111905D02*
X83915000Y-47159524D01*
X83915000Y-47159524D02*
X83962619Y-47254762D01*
X83962619Y-47254762D02*
X83962619Y-47445238D01*
X83962619Y-47445238D02*
X83915000Y-47540476D01*
X83915000Y-47540476D02*
X83867380Y-47588095D01*
X83867380Y-47588095D02*
X83772142Y-47635714D01*
X83772142Y-47635714D02*
X83534047Y-47635714D01*
X83534047Y-47635714D02*
X83438809Y-47588095D01*
X83438809Y-47588095D02*
X83391190Y-47540476D01*
X83391190Y-47540476D02*
X83343571Y-47445238D01*
X83343571Y-47445238D02*
X83343571Y-47254762D01*
X83343571Y-47254762D02*
X83391190Y-47159524D01*
X83391190Y-47159524D02*
X83438809Y-47111905D01*
X83438809Y-47111905D02*
X83534047Y-47064286D01*
%TO.C,D4*%
X141112619Y-27059405D02*
X140112619Y-27059405D01*
X140112619Y-27059405D02*
X140112619Y-27297500D01*
X140112619Y-27297500D02*
X140160238Y-27440357D01*
X140160238Y-27440357D02*
X140255476Y-27535595D01*
X140255476Y-27535595D02*
X140350714Y-27583214D01*
X140350714Y-27583214D02*
X140541190Y-27630833D01*
X140541190Y-27630833D02*
X140684047Y-27630833D01*
X140684047Y-27630833D02*
X140874523Y-27583214D01*
X140874523Y-27583214D02*
X140969761Y-27535595D01*
X140969761Y-27535595D02*
X141065000Y-27440357D01*
X141065000Y-27440357D02*
X141112619Y-27297500D01*
X141112619Y-27297500D02*
X141112619Y-27059405D01*
X140445952Y-28487976D02*
X141112619Y-28487976D01*
X140065000Y-28249881D02*
X140779285Y-28011786D01*
X140779285Y-28011786D02*
X140779285Y-28630833D01*
%TO.C,D8*%
X122062619Y-46111905D02*
X121062619Y-46111905D01*
X121062619Y-46111905D02*
X121062619Y-46350000D01*
X121062619Y-46350000D02*
X121110238Y-46492857D01*
X121110238Y-46492857D02*
X121205476Y-46588095D01*
X121205476Y-46588095D02*
X121300714Y-46635714D01*
X121300714Y-46635714D02*
X121491190Y-46683333D01*
X121491190Y-46683333D02*
X121634047Y-46683333D01*
X121634047Y-46683333D02*
X121824523Y-46635714D01*
X121824523Y-46635714D02*
X121919761Y-46588095D01*
X121919761Y-46588095D02*
X122015000Y-46492857D01*
X122015000Y-46492857D02*
X122062619Y-46350000D01*
X122062619Y-46350000D02*
X122062619Y-46111905D01*
X121491190Y-47254762D02*
X121443571Y-47159524D01*
X121443571Y-47159524D02*
X121395952Y-47111905D01*
X121395952Y-47111905D02*
X121300714Y-47064286D01*
X121300714Y-47064286D02*
X121253095Y-47064286D01*
X121253095Y-47064286D02*
X121157857Y-47111905D01*
X121157857Y-47111905D02*
X121110238Y-47159524D01*
X121110238Y-47159524D02*
X121062619Y-47254762D01*
X121062619Y-47254762D02*
X121062619Y-47445238D01*
X121062619Y-47445238D02*
X121110238Y-47540476D01*
X121110238Y-47540476D02*
X121157857Y-47588095D01*
X121157857Y-47588095D02*
X121253095Y-47635714D01*
X121253095Y-47635714D02*
X121300714Y-47635714D01*
X121300714Y-47635714D02*
X121395952Y-47588095D01*
X121395952Y-47588095D02*
X121443571Y-47540476D01*
X121443571Y-47540476D02*
X121491190Y-47445238D01*
X121491190Y-47445238D02*
X121491190Y-47254762D01*
X121491190Y-47254762D02*
X121538809Y-47159524D01*
X121538809Y-47159524D02*
X121586428Y-47111905D01*
X121586428Y-47111905D02*
X121681666Y-47064286D01*
X121681666Y-47064286D02*
X121872142Y-47064286D01*
X121872142Y-47064286D02*
X121967380Y-47111905D01*
X121967380Y-47111905D02*
X122015000Y-47159524D01*
X122015000Y-47159524D02*
X122062619Y-47254762D01*
X122062619Y-47254762D02*
X122062619Y-47445238D01*
X122062619Y-47445238D02*
X122015000Y-47540476D01*
X122015000Y-47540476D02*
X121967380Y-47588095D01*
X121967380Y-47588095D02*
X121872142Y-47635714D01*
X121872142Y-47635714D02*
X121681666Y-47635714D01*
X121681666Y-47635714D02*
X121586428Y-47588095D01*
X121586428Y-47588095D02*
X121538809Y-47540476D01*
X121538809Y-47540476D02*
X121491190Y-47445238D01*
%TO.C,C2*%
X106816666Y-41009880D02*
X106864285Y-41057500D01*
X106864285Y-41057500D02*
X107007142Y-41105119D01*
X107007142Y-41105119D02*
X107102380Y-41105119D01*
X107102380Y-41105119D02*
X107245237Y-41057500D01*
X107245237Y-41057500D02*
X107340475Y-40962261D01*
X107340475Y-40962261D02*
X107388094Y-40867023D01*
X107388094Y-40867023D02*
X107435713Y-40676547D01*
X107435713Y-40676547D02*
X107435713Y-40533690D01*
X107435713Y-40533690D02*
X107388094Y-40343214D01*
X107388094Y-40343214D02*
X107340475Y-40247976D01*
X107340475Y-40247976D02*
X107245237Y-40152738D01*
X107245237Y-40152738D02*
X107102380Y-40105119D01*
X107102380Y-40105119D02*
X107007142Y-40105119D01*
X107007142Y-40105119D02*
X106864285Y-40152738D01*
X106864285Y-40152738D02*
X106816666Y-40200357D01*
X106435713Y-40200357D02*
X106388094Y-40152738D01*
X106388094Y-40152738D02*
X106292856Y-40105119D01*
X106292856Y-40105119D02*
X106054761Y-40105119D01*
X106054761Y-40105119D02*
X105959523Y-40152738D01*
X105959523Y-40152738D02*
X105911904Y-40200357D01*
X105911904Y-40200357D02*
X105864285Y-40295595D01*
X105864285Y-40295595D02*
X105864285Y-40390833D01*
X105864285Y-40390833D02*
X105911904Y-40533690D01*
X105911904Y-40533690D02*
X106483332Y-41105119D01*
X106483332Y-41105119D02*
X105864285Y-41105119D01*
%TO.C,C8*%
X125806666Y-60014880D02*
X125854285Y-60062500D01*
X125854285Y-60062500D02*
X125997142Y-60110119D01*
X125997142Y-60110119D02*
X126092380Y-60110119D01*
X126092380Y-60110119D02*
X126235237Y-60062500D01*
X126235237Y-60062500D02*
X126330475Y-59967261D01*
X126330475Y-59967261D02*
X126378094Y-59872023D01*
X126378094Y-59872023D02*
X126425713Y-59681547D01*
X126425713Y-59681547D02*
X126425713Y-59538690D01*
X126425713Y-59538690D02*
X126378094Y-59348214D01*
X126378094Y-59348214D02*
X126330475Y-59252976D01*
X126330475Y-59252976D02*
X126235237Y-59157738D01*
X126235237Y-59157738D02*
X126092380Y-59110119D01*
X126092380Y-59110119D02*
X125997142Y-59110119D01*
X125997142Y-59110119D02*
X125854285Y-59157738D01*
X125854285Y-59157738D02*
X125806666Y-59205357D01*
X125235237Y-59538690D02*
X125330475Y-59491071D01*
X125330475Y-59491071D02*
X125378094Y-59443452D01*
X125378094Y-59443452D02*
X125425713Y-59348214D01*
X125425713Y-59348214D02*
X125425713Y-59300595D01*
X125425713Y-59300595D02*
X125378094Y-59205357D01*
X125378094Y-59205357D02*
X125330475Y-59157738D01*
X125330475Y-59157738D02*
X125235237Y-59110119D01*
X125235237Y-59110119D02*
X125044761Y-59110119D01*
X125044761Y-59110119D02*
X124949523Y-59157738D01*
X124949523Y-59157738D02*
X124901904Y-59205357D01*
X124901904Y-59205357D02*
X124854285Y-59300595D01*
X124854285Y-59300595D02*
X124854285Y-59348214D01*
X124854285Y-59348214D02*
X124901904Y-59443452D01*
X124901904Y-59443452D02*
X124949523Y-59491071D01*
X124949523Y-59491071D02*
X125044761Y-59538690D01*
X125044761Y-59538690D02*
X125235237Y-59538690D01*
X125235237Y-59538690D02*
X125330475Y-59586309D01*
X125330475Y-59586309D02*
X125378094Y-59633928D01*
X125378094Y-59633928D02*
X125425713Y-59729166D01*
X125425713Y-59729166D02*
X125425713Y-59919642D01*
X125425713Y-59919642D02*
X125378094Y-60014880D01*
X125378094Y-60014880D02*
X125330475Y-60062500D01*
X125330475Y-60062500D02*
X125235237Y-60110119D01*
X125235237Y-60110119D02*
X125044761Y-60110119D01*
X125044761Y-60110119D02*
X124949523Y-60062500D01*
X124949523Y-60062500D02*
X124901904Y-60014880D01*
X124901904Y-60014880D02*
X124854285Y-59919642D01*
X124854285Y-59919642D02*
X124854285Y-59729166D01*
X124854285Y-59729166D02*
X124901904Y-59633928D01*
X124901904Y-59633928D02*
X124949523Y-59586309D01*
X124949523Y-59586309D02*
X125044761Y-59538690D01*
%TO.C,D10*%
X151662619Y-60968214D02*
X150662619Y-60968214D01*
X150662619Y-60968214D02*
X150662619Y-61206309D01*
X150662619Y-61206309D02*
X150710238Y-61349166D01*
X150710238Y-61349166D02*
X150805476Y-61444404D01*
X150805476Y-61444404D02*
X150900714Y-61492023D01*
X150900714Y-61492023D02*
X151091190Y-61539642D01*
X151091190Y-61539642D02*
X151234047Y-61539642D01*
X151234047Y-61539642D02*
X151424523Y-61492023D01*
X151424523Y-61492023D02*
X151519761Y-61444404D01*
X151519761Y-61444404D02*
X151615000Y-61349166D01*
X151615000Y-61349166D02*
X151662619Y-61206309D01*
X151662619Y-61206309D02*
X151662619Y-60968214D01*
X151662619Y-62492023D02*
X151662619Y-61920595D01*
X151662619Y-62206309D02*
X150662619Y-62206309D01*
X150662619Y-62206309D02*
X150805476Y-62111071D01*
X150805476Y-62111071D02*
X150900714Y-62015833D01*
X150900714Y-62015833D02*
X150948333Y-61920595D01*
X150662619Y-63111071D02*
X150662619Y-63206309D01*
X150662619Y-63206309D02*
X150710238Y-63301547D01*
X150710238Y-63301547D02*
X150757857Y-63349166D01*
X150757857Y-63349166D02*
X150853095Y-63396785D01*
X150853095Y-63396785D02*
X151043571Y-63444404D01*
X151043571Y-63444404D02*
X151281666Y-63444404D01*
X151281666Y-63444404D02*
X151472142Y-63396785D01*
X151472142Y-63396785D02*
X151567380Y-63349166D01*
X151567380Y-63349166D02*
X151615000Y-63301547D01*
X151615000Y-63301547D02*
X151662619Y-63206309D01*
X151662619Y-63206309D02*
X151662619Y-63111071D01*
X151662619Y-63111071D02*
X151615000Y-63015833D01*
X151615000Y-63015833D02*
X151567380Y-62968214D01*
X151567380Y-62968214D02*
X151472142Y-62920595D01*
X151472142Y-62920595D02*
X151281666Y-62872976D01*
X151281666Y-62872976D02*
X151043571Y-62872976D01*
X151043571Y-62872976D02*
X150853095Y-62920595D01*
X150853095Y-62920595D02*
X150757857Y-62968214D01*
X150757857Y-62968214D02*
X150710238Y-63015833D01*
X150710238Y-63015833D02*
X150662619Y-63111071D01*
%TO.C,D14*%
X122062619Y-64685714D02*
X121062619Y-64685714D01*
X121062619Y-64685714D02*
X121062619Y-64923809D01*
X121062619Y-64923809D02*
X121110238Y-65066666D01*
X121110238Y-65066666D02*
X121205476Y-65161904D01*
X121205476Y-65161904D02*
X121300714Y-65209523D01*
X121300714Y-65209523D02*
X121491190Y-65257142D01*
X121491190Y-65257142D02*
X121634047Y-65257142D01*
X121634047Y-65257142D02*
X121824523Y-65209523D01*
X121824523Y-65209523D02*
X121919761Y-65161904D01*
X121919761Y-65161904D02*
X122015000Y-65066666D01*
X122015000Y-65066666D02*
X122062619Y-64923809D01*
X122062619Y-64923809D02*
X122062619Y-64685714D01*
X122062619Y-66209523D02*
X122062619Y-65638095D01*
X122062619Y-65923809D02*
X121062619Y-65923809D01*
X121062619Y-65923809D02*
X121205476Y-65828571D01*
X121205476Y-65828571D02*
X121300714Y-65733333D01*
X121300714Y-65733333D02*
X121348333Y-65638095D01*
X121395952Y-67066666D02*
X122062619Y-67066666D01*
X121015000Y-66828571D02*
X121729285Y-66590476D01*
X121729285Y-66590476D02*
X121729285Y-67209523D01*
%TO.C,C12*%
X69202857Y-79089880D02*
X69250476Y-79137500D01*
X69250476Y-79137500D02*
X69393333Y-79185119D01*
X69393333Y-79185119D02*
X69488571Y-79185119D01*
X69488571Y-79185119D02*
X69631428Y-79137500D01*
X69631428Y-79137500D02*
X69726666Y-79042261D01*
X69726666Y-79042261D02*
X69774285Y-78947023D01*
X69774285Y-78947023D02*
X69821904Y-78756547D01*
X69821904Y-78756547D02*
X69821904Y-78613690D01*
X69821904Y-78613690D02*
X69774285Y-78423214D01*
X69774285Y-78423214D02*
X69726666Y-78327976D01*
X69726666Y-78327976D02*
X69631428Y-78232738D01*
X69631428Y-78232738D02*
X69488571Y-78185119D01*
X69488571Y-78185119D02*
X69393333Y-78185119D01*
X69393333Y-78185119D02*
X69250476Y-78232738D01*
X69250476Y-78232738D02*
X69202857Y-78280357D01*
X68250476Y-79185119D02*
X68821904Y-79185119D01*
X68536190Y-79185119D02*
X68536190Y-78185119D01*
X68536190Y-78185119D02*
X68631428Y-78327976D01*
X68631428Y-78327976D02*
X68726666Y-78423214D01*
X68726666Y-78423214D02*
X68821904Y-78470833D01*
X67869523Y-78280357D02*
X67821904Y-78232738D01*
X67821904Y-78232738D02*
X67726666Y-78185119D01*
X67726666Y-78185119D02*
X67488571Y-78185119D01*
X67488571Y-78185119D02*
X67393333Y-78232738D01*
X67393333Y-78232738D02*
X67345714Y-78280357D01*
X67345714Y-78280357D02*
X67298095Y-78375595D01*
X67298095Y-78375595D02*
X67298095Y-78470833D01*
X67298095Y-78470833D02*
X67345714Y-78613690D01*
X67345714Y-78613690D02*
X67917142Y-79185119D01*
X67917142Y-79185119D02*
X67298095Y-79185119D01*
%TO.C,D12*%
X83962619Y-64685714D02*
X82962619Y-64685714D01*
X82962619Y-64685714D02*
X82962619Y-64923809D01*
X82962619Y-64923809D02*
X83010238Y-65066666D01*
X83010238Y-65066666D02*
X83105476Y-65161904D01*
X83105476Y-65161904D02*
X83200714Y-65209523D01*
X83200714Y-65209523D02*
X83391190Y-65257142D01*
X83391190Y-65257142D02*
X83534047Y-65257142D01*
X83534047Y-65257142D02*
X83724523Y-65209523D01*
X83724523Y-65209523D02*
X83819761Y-65161904D01*
X83819761Y-65161904D02*
X83915000Y-65066666D01*
X83915000Y-65066666D02*
X83962619Y-64923809D01*
X83962619Y-64923809D02*
X83962619Y-64685714D01*
X83962619Y-66209523D02*
X83962619Y-65638095D01*
X83962619Y-65923809D02*
X82962619Y-65923809D01*
X82962619Y-65923809D02*
X83105476Y-65828571D01*
X83105476Y-65828571D02*
X83200714Y-65733333D01*
X83200714Y-65733333D02*
X83248333Y-65638095D01*
X83057857Y-66590476D02*
X83010238Y-66638095D01*
X83010238Y-66638095D02*
X82962619Y-66733333D01*
X82962619Y-66733333D02*
X82962619Y-66971428D01*
X82962619Y-66971428D02*
X83010238Y-67066666D01*
X83010238Y-67066666D02*
X83057857Y-67114285D01*
X83057857Y-67114285D02*
X83153095Y-67161904D01*
X83153095Y-67161904D02*
X83248333Y-67161904D01*
X83248333Y-67161904D02*
X83391190Y-67114285D01*
X83391190Y-67114285D02*
X83962619Y-66542857D01*
X83962619Y-66542857D02*
X83962619Y-67161904D01*
%TO.C,D11*%
X64862619Y-64685714D02*
X63862619Y-64685714D01*
X63862619Y-64685714D02*
X63862619Y-64923809D01*
X63862619Y-64923809D02*
X63910238Y-65066666D01*
X63910238Y-65066666D02*
X64005476Y-65161904D01*
X64005476Y-65161904D02*
X64100714Y-65209523D01*
X64100714Y-65209523D02*
X64291190Y-65257142D01*
X64291190Y-65257142D02*
X64434047Y-65257142D01*
X64434047Y-65257142D02*
X64624523Y-65209523D01*
X64624523Y-65209523D02*
X64719761Y-65161904D01*
X64719761Y-65161904D02*
X64815000Y-65066666D01*
X64815000Y-65066666D02*
X64862619Y-64923809D01*
X64862619Y-64923809D02*
X64862619Y-64685714D01*
X64862619Y-66209523D02*
X64862619Y-65638095D01*
X64862619Y-65923809D02*
X63862619Y-65923809D01*
X63862619Y-65923809D02*
X64005476Y-65828571D01*
X64005476Y-65828571D02*
X64100714Y-65733333D01*
X64100714Y-65733333D02*
X64148333Y-65638095D01*
X64862619Y-67161904D02*
X64862619Y-66590476D01*
X64862619Y-66876190D02*
X63862619Y-66876190D01*
X63862619Y-66876190D02*
X64005476Y-66780952D01*
X64005476Y-66780952D02*
X64100714Y-66685714D01*
X64100714Y-66685714D02*
X64148333Y-66590476D01*
D10*
%TO.C,RGB1*%
X133766666Y-41782619D02*
X134099999Y-41306428D01*
X134338094Y-41782619D02*
X134338094Y-40782619D01*
X134338094Y-40782619D02*
X133957142Y-40782619D01*
X133957142Y-40782619D02*
X133861904Y-40830238D01*
X133861904Y-40830238D02*
X133814285Y-40877857D01*
X133814285Y-40877857D02*
X133766666Y-40973095D01*
X133766666Y-40973095D02*
X133766666Y-41115952D01*
X133766666Y-41115952D02*
X133814285Y-41211190D01*
X133814285Y-41211190D02*
X133861904Y-41258809D01*
X133861904Y-41258809D02*
X133957142Y-41306428D01*
X133957142Y-41306428D02*
X134338094Y-41306428D01*
X132814285Y-40830238D02*
X132909523Y-40782619D01*
X132909523Y-40782619D02*
X133052380Y-40782619D01*
X133052380Y-40782619D02*
X133195237Y-40830238D01*
X133195237Y-40830238D02*
X133290475Y-40925476D01*
X133290475Y-40925476D02*
X133338094Y-41020714D01*
X133338094Y-41020714D02*
X133385713Y-41211190D01*
X133385713Y-41211190D02*
X133385713Y-41354047D01*
X133385713Y-41354047D02*
X133338094Y-41544523D01*
X133338094Y-41544523D02*
X133290475Y-41639761D01*
X133290475Y-41639761D02*
X133195237Y-41735000D01*
X133195237Y-41735000D02*
X133052380Y-41782619D01*
X133052380Y-41782619D02*
X132957142Y-41782619D01*
X132957142Y-41782619D02*
X132814285Y-41735000D01*
X132814285Y-41735000D02*
X132766666Y-41687380D01*
X132766666Y-41687380D02*
X132766666Y-41354047D01*
X132766666Y-41354047D02*
X132957142Y-41354047D01*
X132004761Y-41258809D02*
X131861904Y-41306428D01*
X131861904Y-41306428D02*
X131814285Y-41354047D01*
X131814285Y-41354047D02*
X131766666Y-41449285D01*
X131766666Y-41449285D02*
X131766666Y-41592142D01*
X131766666Y-41592142D02*
X131814285Y-41687380D01*
X131814285Y-41687380D02*
X131861904Y-41735000D01*
X131861904Y-41735000D02*
X131957142Y-41782619D01*
X131957142Y-41782619D02*
X132338094Y-41782619D01*
X132338094Y-41782619D02*
X132338094Y-40782619D01*
X132338094Y-40782619D02*
X132004761Y-40782619D01*
X132004761Y-40782619D02*
X131909523Y-40830238D01*
X131909523Y-40830238D02*
X131861904Y-40877857D01*
X131861904Y-40877857D02*
X131814285Y-40973095D01*
X131814285Y-40973095D02*
X131814285Y-41068333D01*
X131814285Y-41068333D02*
X131861904Y-41163571D01*
X131861904Y-41163571D02*
X131909523Y-41211190D01*
X131909523Y-41211190D02*
X132004761Y-41258809D01*
X132004761Y-41258809D02*
X132338094Y-41258809D01*
X130814285Y-41782619D02*
X131385713Y-41782619D01*
X131099999Y-41782619D02*
X131099999Y-40782619D01*
X131099999Y-40782619D02*
X131195237Y-40925476D01*
X131195237Y-40925476D02*
X131290475Y-41020714D01*
X131290475Y-41020714D02*
X131385713Y-41068333D01*
D11*
%TO.C,C4*%
X69207380Y-40233333D02*
X69255000Y-40185714D01*
X69255000Y-40185714D02*
X69302619Y-40042857D01*
X69302619Y-40042857D02*
X69302619Y-39947619D01*
X69302619Y-39947619D02*
X69255000Y-39804762D01*
X69255000Y-39804762D02*
X69159761Y-39709524D01*
X69159761Y-39709524D02*
X69064523Y-39661905D01*
X69064523Y-39661905D02*
X68874047Y-39614286D01*
X68874047Y-39614286D02*
X68731190Y-39614286D01*
X68731190Y-39614286D02*
X68540714Y-39661905D01*
X68540714Y-39661905D02*
X68445476Y-39709524D01*
X68445476Y-39709524D02*
X68350238Y-39804762D01*
X68350238Y-39804762D02*
X68302619Y-39947619D01*
X68302619Y-39947619D02*
X68302619Y-40042857D01*
X68302619Y-40042857D02*
X68350238Y-40185714D01*
X68350238Y-40185714D02*
X68397857Y-40233333D01*
X68635952Y-41090476D02*
X69302619Y-41090476D01*
X68255000Y-40852381D02*
X68969285Y-40614286D01*
X68969285Y-40614286D02*
X68969285Y-41233333D01*
%TO.C,C3*%
X87766666Y-41009880D02*
X87814285Y-41057500D01*
X87814285Y-41057500D02*
X87957142Y-41105119D01*
X87957142Y-41105119D02*
X88052380Y-41105119D01*
X88052380Y-41105119D02*
X88195237Y-41057500D01*
X88195237Y-41057500D02*
X88290475Y-40962261D01*
X88290475Y-40962261D02*
X88338094Y-40867023D01*
X88338094Y-40867023D02*
X88385713Y-40676547D01*
X88385713Y-40676547D02*
X88385713Y-40533690D01*
X88385713Y-40533690D02*
X88338094Y-40343214D01*
X88338094Y-40343214D02*
X88290475Y-40247976D01*
X88290475Y-40247976D02*
X88195237Y-40152738D01*
X88195237Y-40152738D02*
X88052380Y-40105119D01*
X88052380Y-40105119D02*
X87957142Y-40105119D01*
X87957142Y-40105119D02*
X87814285Y-40152738D01*
X87814285Y-40152738D02*
X87766666Y-40200357D01*
X87433332Y-40105119D02*
X86814285Y-40105119D01*
X86814285Y-40105119D02*
X87147618Y-40486071D01*
X87147618Y-40486071D02*
X87004761Y-40486071D01*
X87004761Y-40486071D02*
X86909523Y-40533690D01*
X86909523Y-40533690D02*
X86861904Y-40581309D01*
X86861904Y-40581309D02*
X86814285Y-40676547D01*
X86814285Y-40676547D02*
X86814285Y-40914642D01*
X86814285Y-40914642D02*
X86861904Y-41009880D01*
X86861904Y-41009880D02*
X86909523Y-41057500D01*
X86909523Y-41057500D02*
X87004761Y-41105119D01*
X87004761Y-41105119D02*
X87290475Y-41105119D01*
X87290475Y-41105119D02*
X87385713Y-41057500D01*
X87385713Y-41057500D02*
X87433332Y-41009880D01*
D10*
%TO.C,RGB2*%
X114716666Y-41782619D02*
X115049999Y-41306428D01*
X115288094Y-41782619D02*
X115288094Y-40782619D01*
X115288094Y-40782619D02*
X114907142Y-40782619D01*
X114907142Y-40782619D02*
X114811904Y-40830238D01*
X114811904Y-40830238D02*
X114764285Y-40877857D01*
X114764285Y-40877857D02*
X114716666Y-40973095D01*
X114716666Y-40973095D02*
X114716666Y-41115952D01*
X114716666Y-41115952D02*
X114764285Y-41211190D01*
X114764285Y-41211190D02*
X114811904Y-41258809D01*
X114811904Y-41258809D02*
X114907142Y-41306428D01*
X114907142Y-41306428D02*
X115288094Y-41306428D01*
X113764285Y-40830238D02*
X113859523Y-40782619D01*
X113859523Y-40782619D02*
X114002380Y-40782619D01*
X114002380Y-40782619D02*
X114145237Y-40830238D01*
X114145237Y-40830238D02*
X114240475Y-40925476D01*
X114240475Y-40925476D02*
X114288094Y-41020714D01*
X114288094Y-41020714D02*
X114335713Y-41211190D01*
X114335713Y-41211190D02*
X114335713Y-41354047D01*
X114335713Y-41354047D02*
X114288094Y-41544523D01*
X114288094Y-41544523D02*
X114240475Y-41639761D01*
X114240475Y-41639761D02*
X114145237Y-41735000D01*
X114145237Y-41735000D02*
X114002380Y-41782619D01*
X114002380Y-41782619D02*
X113907142Y-41782619D01*
X113907142Y-41782619D02*
X113764285Y-41735000D01*
X113764285Y-41735000D02*
X113716666Y-41687380D01*
X113716666Y-41687380D02*
X113716666Y-41354047D01*
X113716666Y-41354047D02*
X113907142Y-41354047D01*
X112954761Y-41258809D02*
X112811904Y-41306428D01*
X112811904Y-41306428D02*
X112764285Y-41354047D01*
X112764285Y-41354047D02*
X112716666Y-41449285D01*
X112716666Y-41449285D02*
X112716666Y-41592142D01*
X112716666Y-41592142D02*
X112764285Y-41687380D01*
X112764285Y-41687380D02*
X112811904Y-41735000D01*
X112811904Y-41735000D02*
X112907142Y-41782619D01*
X112907142Y-41782619D02*
X113288094Y-41782619D01*
X113288094Y-41782619D02*
X113288094Y-40782619D01*
X113288094Y-40782619D02*
X112954761Y-40782619D01*
X112954761Y-40782619D02*
X112859523Y-40830238D01*
X112859523Y-40830238D02*
X112811904Y-40877857D01*
X112811904Y-40877857D02*
X112764285Y-40973095D01*
X112764285Y-40973095D02*
X112764285Y-41068333D01*
X112764285Y-41068333D02*
X112811904Y-41163571D01*
X112811904Y-41163571D02*
X112859523Y-41211190D01*
X112859523Y-41211190D02*
X112954761Y-41258809D01*
X112954761Y-41258809D02*
X113288094Y-41258809D01*
X112335713Y-40877857D02*
X112288094Y-40830238D01*
X112288094Y-40830238D02*
X112192856Y-40782619D01*
X112192856Y-40782619D02*
X111954761Y-40782619D01*
X111954761Y-40782619D02*
X111859523Y-40830238D01*
X111859523Y-40830238D02*
X111811904Y-40877857D01*
X111811904Y-40877857D02*
X111764285Y-40973095D01*
X111764285Y-40973095D02*
X111764285Y-41068333D01*
X111764285Y-41068333D02*
X111811904Y-41211190D01*
X111811904Y-41211190D02*
X112383332Y-41782619D01*
X112383332Y-41782619D02*
X111764285Y-41782619D01*
D11*
%TO.C,C11*%
X88226667Y-79029880D02*
X88274286Y-79077500D01*
X88274286Y-79077500D02*
X88417143Y-79125119D01*
X88417143Y-79125119D02*
X88512381Y-79125119D01*
X88512381Y-79125119D02*
X88655238Y-79077500D01*
X88655238Y-79077500D02*
X88750476Y-78982261D01*
X88750476Y-78982261D02*
X88798095Y-78887023D01*
X88798095Y-78887023D02*
X88845714Y-78696547D01*
X88845714Y-78696547D02*
X88845714Y-78553690D01*
X88845714Y-78553690D02*
X88798095Y-78363214D01*
X88798095Y-78363214D02*
X88750476Y-78267976D01*
X88750476Y-78267976D02*
X88655238Y-78172738D01*
X88655238Y-78172738D02*
X88512381Y-78125119D01*
X88512381Y-78125119D02*
X88417143Y-78125119D01*
X88417143Y-78125119D02*
X88274286Y-78172738D01*
X88274286Y-78172738D02*
X88226667Y-78220357D01*
X87274286Y-79125119D02*
X87845714Y-79125119D01*
X87560000Y-79125119D02*
X87560000Y-78125119D01*
X87560000Y-78125119D02*
X87655238Y-78267976D01*
X87655238Y-78267976D02*
X87750476Y-78363214D01*
X87750476Y-78363214D02*
X87845714Y-78410833D01*
X86321905Y-79125119D02*
X86893333Y-79125119D01*
X86607619Y-79125119D02*
X86607619Y-78125119D01*
X86607619Y-78125119D02*
X86702857Y-78267976D01*
X86702857Y-78267976D02*
X86798095Y-78363214D01*
X86798095Y-78363214D02*
X86893333Y-78410833D01*
D10*
%TO.C,RGB8*%
X76626666Y-60812619D02*
X76959999Y-60336428D01*
X77198094Y-60812619D02*
X77198094Y-59812619D01*
X77198094Y-59812619D02*
X76817142Y-59812619D01*
X76817142Y-59812619D02*
X76721904Y-59860238D01*
X76721904Y-59860238D02*
X76674285Y-59907857D01*
X76674285Y-59907857D02*
X76626666Y-60003095D01*
X76626666Y-60003095D02*
X76626666Y-60145952D01*
X76626666Y-60145952D02*
X76674285Y-60241190D01*
X76674285Y-60241190D02*
X76721904Y-60288809D01*
X76721904Y-60288809D02*
X76817142Y-60336428D01*
X76817142Y-60336428D02*
X77198094Y-60336428D01*
X75674285Y-59860238D02*
X75769523Y-59812619D01*
X75769523Y-59812619D02*
X75912380Y-59812619D01*
X75912380Y-59812619D02*
X76055237Y-59860238D01*
X76055237Y-59860238D02*
X76150475Y-59955476D01*
X76150475Y-59955476D02*
X76198094Y-60050714D01*
X76198094Y-60050714D02*
X76245713Y-60241190D01*
X76245713Y-60241190D02*
X76245713Y-60384047D01*
X76245713Y-60384047D02*
X76198094Y-60574523D01*
X76198094Y-60574523D02*
X76150475Y-60669761D01*
X76150475Y-60669761D02*
X76055237Y-60765000D01*
X76055237Y-60765000D02*
X75912380Y-60812619D01*
X75912380Y-60812619D02*
X75817142Y-60812619D01*
X75817142Y-60812619D02*
X75674285Y-60765000D01*
X75674285Y-60765000D02*
X75626666Y-60717380D01*
X75626666Y-60717380D02*
X75626666Y-60384047D01*
X75626666Y-60384047D02*
X75817142Y-60384047D01*
X74864761Y-60288809D02*
X74721904Y-60336428D01*
X74721904Y-60336428D02*
X74674285Y-60384047D01*
X74674285Y-60384047D02*
X74626666Y-60479285D01*
X74626666Y-60479285D02*
X74626666Y-60622142D01*
X74626666Y-60622142D02*
X74674285Y-60717380D01*
X74674285Y-60717380D02*
X74721904Y-60765000D01*
X74721904Y-60765000D02*
X74817142Y-60812619D01*
X74817142Y-60812619D02*
X75198094Y-60812619D01*
X75198094Y-60812619D02*
X75198094Y-59812619D01*
X75198094Y-59812619D02*
X74864761Y-59812619D01*
X74864761Y-59812619D02*
X74769523Y-59860238D01*
X74769523Y-59860238D02*
X74721904Y-59907857D01*
X74721904Y-59907857D02*
X74674285Y-60003095D01*
X74674285Y-60003095D02*
X74674285Y-60098333D01*
X74674285Y-60098333D02*
X74721904Y-60193571D01*
X74721904Y-60193571D02*
X74769523Y-60241190D01*
X74769523Y-60241190D02*
X74864761Y-60288809D01*
X74864761Y-60288809D02*
X75198094Y-60288809D01*
X74055237Y-60241190D02*
X74150475Y-60193571D01*
X74150475Y-60193571D02*
X74198094Y-60145952D01*
X74198094Y-60145952D02*
X74245713Y-60050714D01*
X74245713Y-60050714D02*
X74245713Y-60003095D01*
X74245713Y-60003095D02*
X74198094Y-59907857D01*
X74198094Y-59907857D02*
X74150475Y-59860238D01*
X74150475Y-59860238D02*
X74055237Y-59812619D01*
X74055237Y-59812619D02*
X73864761Y-59812619D01*
X73864761Y-59812619D02*
X73769523Y-59860238D01*
X73769523Y-59860238D02*
X73721904Y-59907857D01*
X73721904Y-59907857D02*
X73674285Y-60003095D01*
X73674285Y-60003095D02*
X73674285Y-60050714D01*
X73674285Y-60050714D02*
X73721904Y-60145952D01*
X73721904Y-60145952D02*
X73769523Y-60193571D01*
X73769523Y-60193571D02*
X73864761Y-60241190D01*
X73864761Y-60241190D02*
X74055237Y-60241190D01*
X74055237Y-60241190D02*
X74150475Y-60288809D01*
X74150475Y-60288809D02*
X74198094Y-60336428D01*
X74198094Y-60336428D02*
X74245713Y-60431666D01*
X74245713Y-60431666D02*
X74245713Y-60622142D01*
X74245713Y-60622142D02*
X74198094Y-60717380D01*
X74198094Y-60717380D02*
X74150475Y-60765000D01*
X74150475Y-60765000D02*
X74055237Y-60812619D01*
X74055237Y-60812619D02*
X73864761Y-60812619D01*
X73864761Y-60812619D02*
X73769523Y-60765000D01*
X73769523Y-60765000D02*
X73721904Y-60717380D01*
X73721904Y-60717380D02*
X73674285Y-60622142D01*
X73674285Y-60622142D02*
X73674285Y-60431666D01*
X73674285Y-60431666D02*
X73721904Y-60336428D01*
X73721904Y-60336428D02*
X73769523Y-60288809D01*
X73769523Y-60288809D02*
X73864761Y-60241190D01*
D11*
%TO.C,C6*%
X87700476Y-59954880D02*
X87748095Y-60002500D01*
X87748095Y-60002500D02*
X87890952Y-60050119D01*
X87890952Y-60050119D02*
X87986190Y-60050119D01*
X87986190Y-60050119D02*
X88129047Y-60002500D01*
X88129047Y-60002500D02*
X88224285Y-59907261D01*
X88224285Y-59907261D02*
X88271904Y-59812023D01*
X88271904Y-59812023D02*
X88319523Y-59621547D01*
X88319523Y-59621547D02*
X88319523Y-59478690D01*
X88319523Y-59478690D02*
X88271904Y-59288214D01*
X88271904Y-59288214D02*
X88224285Y-59192976D01*
X88224285Y-59192976D02*
X88129047Y-59097738D01*
X88129047Y-59097738D02*
X87986190Y-59050119D01*
X87986190Y-59050119D02*
X87890952Y-59050119D01*
X87890952Y-59050119D02*
X87748095Y-59097738D01*
X87748095Y-59097738D02*
X87700476Y-59145357D01*
X86843333Y-59050119D02*
X87033809Y-59050119D01*
X87033809Y-59050119D02*
X87129047Y-59097738D01*
X87129047Y-59097738D02*
X87176666Y-59145357D01*
X87176666Y-59145357D02*
X87271904Y-59288214D01*
X87271904Y-59288214D02*
X87319523Y-59478690D01*
X87319523Y-59478690D02*
X87319523Y-59859642D01*
X87319523Y-59859642D02*
X87271904Y-59954880D01*
X87271904Y-59954880D02*
X87224285Y-60002500D01*
X87224285Y-60002500D02*
X87129047Y-60050119D01*
X87129047Y-60050119D02*
X86938571Y-60050119D01*
X86938571Y-60050119D02*
X86843333Y-60002500D01*
X86843333Y-60002500D02*
X86795714Y-59954880D01*
X86795714Y-59954880D02*
X86748095Y-59859642D01*
X86748095Y-59859642D02*
X86748095Y-59621547D01*
X86748095Y-59621547D02*
X86795714Y-59526309D01*
X86795714Y-59526309D02*
X86843333Y-59478690D01*
X86843333Y-59478690D02*
X86938571Y-59431071D01*
X86938571Y-59431071D02*
X87129047Y-59431071D01*
X87129047Y-59431071D02*
X87224285Y-59478690D01*
X87224285Y-59478690D02*
X87271904Y-59526309D01*
X87271904Y-59526309D02*
X87319523Y-59621547D01*
D10*
%TO.C,RGB7*%
X95666666Y-60812619D02*
X95999999Y-60336428D01*
X96238094Y-60812619D02*
X96238094Y-59812619D01*
X96238094Y-59812619D02*
X95857142Y-59812619D01*
X95857142Y-59812619D02*
X95761904Y-59860238D01*
X95761904Y-59860238D02*
X95714285Y-59907857D01*
X95714285Y-59907857D02*
X95666666Y-60003095D01*
X95666666Y-60003095D02*
X95666666Y-60145952D01*
X95666666Y-60145952D02*
X95714285Y-60241190D01*
X95714285Y-60241190D02*
X95761904Y-60288809D01*
X95761904Y-60288809D02*
X95857142Y-60336428D01*
X95857142Y-60336428D02*
X96238094Y-60336428D01*
X94714285Y-59860238D02*
X94809523Y-59812619D01*
X94809523Y-59812619D02*
X94952380Y-59812619D01*
X94952380Y-59812619D02*
X95095237Y-59860238D01*
X95095237Y-59860238D02*
X95190475Y-59955476D01*
X95190475Y-59955476D02*
X95238094Y-60050714D01*
X95238094Y-60050714D02*
X95285713Y-60241190D01*
X95285713Y-60241190D02*
X95285713Y-60384047D01*
X95285713Y-60384047D02*
X95238094Y-60574523D01*
X95238094Y-60574523D02*
X95190475Y-60669761D01*
X95190475Y-60669761D02*
X95095237Y-60765000D01*
X95095237Y-60765000D02*
X94952380Y-60812619D01*
X94952380Y-60812619D02*
X94857142Y-60812619D01*
X94857142Y-60812619D02*
X94714285Y-60765000D01*
X94714285Y-60765000D02*
X94666666Y-60717380D01*
X94666666Y-60717380D02*
X94666666Y-60384047D01*
X94666666Y-60384047D02*
X94857142Y-60384047D01*
X93904761Y-60288809D02*
X93761904Y-60336428D01*
X93761904Y-60336428D02*
X93714285Y-60384047D01*
X93714285Y-60384047D02*
X93666666Y-60479285D01*
X93666666Y-60479285D02*
X93666666Y-60622142D01*
X93666666Y-60622142D02*
X93714285Y-60717380D01*
X93714285Y-60717380D02*
X93761904Y-60765000D01*
X93761904Y-60765000D02*
X93857142Y-60812619D01*
X93857142Y-60812619D02*
X94238094Y-60812619D01*
X94238094Y-60812619D02*
X94238094Y-59812619D01*
X94238094Y-59812619D02*
X93904761Y-59812619D01*
X93904761Y-59812619D02*
X93809523Y-59860238D01*
X93809523Y-59860238D02*
X93761904Y-59907857D01*
X93761904Y-59907857D02*
X93714285Y-60003095D01*
X93714285Y-60003095D02*
X93714285Y-60098333D01*
X93714285Y-60098333D02*
X93761904Y-60193571D01*
X93761904Y-60193571D02*
X93809523Y-60241190D01*
X93809523Y-60241190D02*
X93904761Y-60288809D01*
X93904761Y-60288809D02*
X94238094Y-60288809D01*
X93333332Y-59812619D02*
X92666666Y-59812619D01*
X92666666Y-59812619D02*
X93095237Y-60812619D01*
D11*
%TO.C,C13*%
X50207380Y-76857142D02*
X50255000Y-76809523D01*
X50255000Y-76809523D02*
X50302619Y-76666666D01*
X50302619Y-76666666D02*
X50302619Y-76571428D01*
X50302619Y-76571428D02*
X50255000Y-76428571D01*
X50255000Y-76428571D02*
X50159761Y-76333333D01*
X50159761Y-76333333D02*
X50064523Y-76285714D01*
X50064523Y-76285714D02*
X49874047Y-76238095D01*
X49874047Y-76238095D02*
X49731190Y-76238095D01*
X49731190Y-76238095D02*
X49540714Y-76285714D01*
X49540714Y-76285714D02*
X49445476Y-76333333D01*
X49445476Y-76333333D02*
X49350238Y-76428571D01*
X49350238Y-76428571D02*
X49302619Y-76571428D01*
X49302619Y-76571428D02*
X49302619Y-76666666D01*
X49302619Y-76666666D02*
X49350238Y-76809523D01*
X49350238Y-76809523D02*
X49397857Y-76857142D01*
X50302619Y-77809523D02*
X50302619Y-77238095D01*
X50302619Y-77523809D02*
X49302619Y-77523809D01*
X49302619Y-77523809D02*
X49445476Y-77428571D01*
X49445476Y-77428571D02*
X49540714Y-77333333D01*
X49540714Y-77333333D02*
X49588333Y-77238095D01*
X49302619Y-78142857D02*
X49302619Y-78761904D01*
X49302619Y-78761904D02*
X49683571Y-78428571D01*
X49683571Y-78428571D02*
X49683571Y-78571428D01*
X49683571Y-78571428D02*
X49731190Y-78666666D01*
X49731190Y-78666666D02*
X49778809Y-78714285D01*
X49778809Y-78714285D02*
X49874047Y-78761904D01*
X49874047Y-78761904D02*
X50112142Y-78761904D01*
X50112142Y-78761904D02*
X50207380Y-78714285D01*
X50207380Y-78714285D02*
X50255000Y-78666666D01*
X50255000Y-78666666D02*
X50302619Y-78571428D01*
X50302619Y-78571428D02*
X50302619Y-78285714D01*
X50302619Y-78285714D02*
X50255000Y-78190476D01*
X50255000Y-78190476D02*
X50207380Y-78142857D01*
D12*
%TO.C,RGB3*%
X98232500Y-40532500D02*
X90982500Y-40532500D01*
X98232500Y-36632500D02*
X90982500Y-36632500D01*
X90982500Y-40532500D02*
X90982500Y-39457500D01*
%TO.C,RGB4*%
X79192500Y-40532500D02*
X71942500Y-40532500D01*
X79192500Y-36632500D02*
X71942500Y-36632500D01*
X71942500Y-40532500D02*
X71942500Y-39457500D01*
%TO.C,D3*%
X120500000Y-25540000D02*
X120500000Y-29550000D01*
X118500000Y-25540000D02*
X120500000Y-25540000D01*
X118500000Y-25540000D02*
X118500000Y-29550000D01*
%TO.C,D7*%
X101450000Y-44592500D02*
X101450000Y-48602500D01*
X99450000Y-44592500D02*
X101450000Y-44592500D01*
X99450000Y-44592500D02*
X99450000Y-48602500D01*
%TO.C,D13*%
X101450000Y-63642500D02*
X101450000Y-67652500D01*
X99450000Y-63642500D02*
X101450000Y-63642500D01*
X99450000Y-63642500D02*
X99450000Y-67652500D01*
%TO.C,C10*%
X106542164Y-77202500D02*
X106757836Y-77202500D01*
X106542164Y-77922500D02*
X106757836Y-77922500D01*
%TO.C,D2*%
X101450000Y-25540000D02*
X101450000Y-29550000D01*
X99450000Y-25540000D02*
X101450000Y-25540000D01*
X99450000Y-25540000D02*
X99450000Y-29550000D01*
%TO.C,RGB6*%
X117282500Y-59562500D02*
X110032500Y-59562500D01*
X117282500Y-55662500D02*
X110032500Y-55662500D01*
X110032500Y-59562500D02*
X110032500Y-58487500D01*
%TO.C,D9*%
X139550000Y-44592500D02*
X139550000Y-48602500D01*
X137550000Y-44592500D02*
X139550000Y-44592500D01*
X137550000Y-44592500D02*
X137550000Y-48602500D01*
%TO.C,RGB9*%
X136332500Y-78612500D02*
X129082500Y-78612500D01*
X136332500Y-74712500D02*
X129082500Y-74712500D01*
X129082500Y-78612500D02*
X129082500Y-77537500D01*
%TO.C,D5*%
X154210000Y-29522500D02*
X154210000Y-33532500D01*
X152210000Y-29522500D02*
X154210000Y-29522500D01*
X152210000Y-29522500D02*
X152210000Y-33532500D01*
%TO.C,RGB11*%
X98232500Y-78612500D02*
X90982500Y-78612500D01*
X98232500Y-74712500D02*
X90982500Y-74712500D01*
X90982500Y-78612500D02*
X90982500Y-77537500D01*
%TO.C,RGB10*%
X117282500Y-78612500D02*
X110032500Y-78612500D01*
X117282500Y-74712500D02*
X110032500Y-74712500D01*
X110032500Y-78612500D02*
X110032500Y-77537500D01*
%TO.C,RGB5*%
X136332500Y-59562500D02*
X129082500Y-59562500D01*
X136332500Y-55662500D02*
X129082500Y-55662500D01*
X129082500Y-59562500D02*
X129082500Y-58487500D01*
%TO.C,D1*%
X82400000Y-25540000D02*
X82400000Y-29550000D01*
X80400000Y-25540000D02*
X82400000Y-25540000D01*
X80400000Y-25540000D02*
X80400000Y-29550000D01*
%TO.C,D15*%
X139550000Y-63642500D02*
X139550000Y-67652500D01*
X137550000Y-63642500D02*
X139550000Y-63642500D01*
X137550000Y-63642500D02*
X137550000Y-67652500D01*
%TO.C,RGB13*%
X60132500Y-78612500D02*
X52882500Y-78612500D01*
X60132500Y-74712500D02*
X52882500Y-74712500D01*
X52882500Y-78612500D02*
X52882500Y-77537500D01*
%TO.C,C9*%
X125592164Y-77202500D02*
X125807836Y-77202500D01*
X125592164Y-77922500D02*
X125807836Y-77922500D01*
%TO.C,C5*%
X70092164Y-58240000D02*
X70307836Y-58240000D01*
X70092164Y-58960000D02*
X70307836Y-58960000D01*
%TO.C,C1*%
X125592164Y-39122500D02*
X125807836Y-39122500D01*
X125592164Y-39842500D02*
X125807836Y-39842500D01*
%TO.C,RGB12*%
X79192500Y-78612500D02*
X71942500Y-78612500D01*
X79192500Y-74712500D02*
X71942500Y-74712500D01*
X71942500Y-78612500D02*
X71942500Y-77537500D01*
%TO.C,C7*%
X106492164Y-58127500D02*
X106707836Y-58127500D01*
X106492164Y-58847500D02*
X106707836Y-58847500D01*
%TO.C,D6*%
X82400000Y-44592500D02*
X82400000Y-48602500D01*
X80400000Y-44592500D02*
X82400000Y-44592500D01*
X80400000Y-44592500D02*
X80400000Y-48602500D01*
%TO.C,D4*%
X139550000Y-25540000D02*
X139550000Y-29550000D01*
X137550000Y-25540000D02*
X139550000Y-25540000D01*
X137550000Y-25540000D02*
X137550000Y-29550000D01*
%TO.C,D8*%
X120500000Y-44592500D02*
X120500000Y-48602500D01*
X118500000Y-44592500D02*
X120500000Y-44592500D01*
X118500000Y-44592500D02*
X118500000Y-48602500D01*
%TO.C,C2*%
X106542164Y-39122500D02*
X106757836Y-39122500D01*
X106542164Y-39842500D02*
X106757836Y-39842500D01*
%TO.C,C8*%
X125532164Y-58127500D02*
X125747836Y-58127500D01*
X125532164Y-58847500D02*
X125747836Y-58847500D01*
%TO.C,D10*%
X154200000Y-59822500D02*
X154200000Y-63832500D01*
X152200000Y-59822500D02*
X154200000Y-59822500D01*
X152200000Y-59822500D02*
X152200000Y-63832500D01*
%TO.C,D14*%
X120500000Y-63642500D02*
X120500000Y-67652500D01*
X118500000Y-63642500D02*
X120500000Y-63642500D01*
X118500000Y-63642500D02*
X118500000Y-67652500D01*
%TO.C,C12*%
X68452164Y-77202500D02*
X68667836Y-77202500D01*
X68452164Y-77922500D02*
X68667836Y-77922500D01*
%TO.C,D12*%
X82400000Y-63642500D02*
X82400000Y-67652500D01*
X80400000Y-63642500D02*
X82400000Y-63642500D01*
X80400000Y-63642500D02*
X80400000Y-67652500D01*
%TO.C,D11*%
X63300000Y-63642500D02*
X63300000Y-67652500D01*
X61300000Y-63642500D02*
X63300000Y-63642500D01*
X61300000Y-63642500D02*
X61300000Y-67652500D01*
%TO.C,RGB1*%
X136332500Y-40532500D02*
X129082500Y-40532500D01*
X136332500Y-36632500D02*
X129082500Y-36632500D01*
X129082500Y-40532500D02*
X129082500Y-39457500D01*
%TO.C,C4*%
X70360000Y-40292164D02*
X70360000Y-40507836D01*
X69640000Y-40292164D02*
X69640000Y-40507836D01*
%TO.C,C3*%
X87492164Y-39122500D02*
X87707836Y-39122500D01*
X87492164Y-39842500D02*
X87707836Y-39842500D01*
%TO.C,RGB2*%
X117282500Y-40532500D02*
X110032500Y-40532500D01*
X117282500Y-36632500D02*
X110032500Y-36632500D01*
X110032500Y-40532500D02*
X110032500Y-39457500D01*
%TO.C,C11*%
X87492164Y-77202500D02*
X87707836Y-77202500D01*
X87492164Y-77922500D02*
X87707836Y-77922500D01*
%TO.C,RGB8*%
X79192500Y-59562500D02*
X71942500Y-59562500D01*
X79192500Y-55662500D02*
X71942500Y-55662500D01*
X71942500Y-59562500D02*
X71942500Y-58487500D01*
%TO.C,C6*%
X87442164Y-58127500D02*
X87657836Y-58127500D01*
X87442164Y-58847500D02*
X87657836Y-58847500D01*
%TO.C,RGB7*%
X98232500Y-59562500D02*
X90982500Y-59562500D01*
X98232500Y-55662500D02*
X90982500Y-55662500D01*
X90982500Y-59562500D02*
X90982500Y-58487500D01*
%TO.C,C13*%
X51360000Y-77392164D02*
X51360000Y-77607836D01*
X50640000Y-77392164D02*
X50640000Y-77607836D01*
%TD*%
M02*
