%TF.GenerationSoftware,KiCad,Pcbnew,7.0.2*%
%TF.CreationDate,2023-08-21T12:10:16-07:00*%
%TF.ProjectId,Macropad_Project,4d616372-6f70-4616-945f-50726f6a6563,rev?*%
%TF.SameCoordinates,Original*%
%TF.FileFunction,Soldermask,Bot*%
%TF.FilePolarity,Negative*%
%FSLAX46Y46*%
G04 Gerber Fmt 4.6, Leading zero omitted, Abs format (unit mm)*
G04 Created by KiCad (PCBNEW 7.0.2) date 2023-08-21 12:10:16*
%MOMM*%
%LPD*%
G01*
G04 APERTURE LIST*
G04 Aperture macros list*
%AMRoundRect*
0 Rectangle with rounded corners*
0 $1 Rounding radius*
0 $2 $3 $4 $5 $6 $7 $8 $9 X,Y pos of 4 corners*
0 Add a 4 corners polygon primitive as box body*
4,1,4,$2,$3,$4,$5,$6,$7,$8,$9,$2,$3,0*
0 Add four circle primitives for the rounded corners*
1,1,$1+$1,$2,$3*
1,1,$1+$1,$4,$5*
1,1,$1+$1,$6,$7*
1,1,$1+$1,$8,$9*
0 Add four rect primitives between the rounded corners*
20,1,$1+$1,$2,$3,$4,$5,0*
20,1,$1+$1,$4,$5,$6,$7,0*
20,1,$1+$1,$6,$7,$8,$9,0*
20,1,$1+$1,$8,$9,$2,$3,0*%
G04 Aperture macros list end*
%ADD10C,1.750000*%
%ADD11C,3.987800*%
%ADD12C,2.300000*%
%ADD13R,1.650000X1.650000*%
%ADD14C,1.650000*%
%ADD15O,6.000000X3.000000*%
%ADD16C,1.800000*%
%ADD17RoundRect,0.450000X-0.450000X-0.450000X0.450000X-0.450000X0.450000X0.450000X-0.450000X0.450000X0*%
%ADD18R,1.600000X0.850000*%
%ADD19RoundRect,0.225000X-0.375000X0.225000X-0.375000X-0.225000X0.375000X-0.225000X0.375000X0.225000X0*%
%ADD20RoundRect,0.140000X-0.140000X-0.170000X0.140000X-0.170000X0.140000X0.170000X-0.140000X0.170000X0*%
%ADD21O,1.350000X1.350000*%
%ADD22R,1.350000X1.350000*%
%ADD23RoundRect,0.140000X-0.170000X0.140000X-0.170000X-0.140000X0.170000X-0.140000X0.170000X0.140000X0*%
G04 APERTURE END LIST*
D10*
%TO.C,MX14*%
X108570000Y-72050000D03*
D11*
X113650000Y-72050000D03*
D10*
X118730000Y-72050000D03*
D12*
X109840000Y-69510000D03*
X116190000Y-66970000D03*
%TD*%
D10*
%TO.C,MX13*%
X89520000Y-72050000D03*
D11*
X94600000Y-72050000D03*
D10*
X99680000Y-72050000D03*
D12*
X90790000Y-69510000D03*
X97140000Y-66970000D03*
%TD*%
D10*
%TO.C,MX7*%
X89520000Y-53000000D03*
D11*
X94600000Y-53000000D03*
D10*
X99680000Y-53000000D03*
D12*
X90790000Y-50460000D03*
X97140000Y-47920000D03*
%TD*%
D10*
%TO.C,MX9*%
X127620000Y-53000000D03*
D11*
X132700000Y-53000000D03*
D10*
X137780000Y-53000000D03*
D12*
X128890000Y-50460000D03*
X135240000Y-47920000D03*
%TD*%
D10*
%TO.C,MX2*%
X89520000Y-33970000D03*
D11*
X94600000Y-33970000D03*
D10*
X99680000Y-33970000D03*
D12*
X90790000Y-31430000D03*
X97140000Y-28890000D03*
%TD*%
D13*
%TO.C,MT10*%
X153200000Y-70660000D03*
D14*
X153200000Y-65660000D03*
X167700000Y-70660000D03*
X167700000Y-65660000D03*
X167700000Y-68160000D03*
D15*
X160200000Y-73860000D03*
X160200000Y-62460000D03*
%TD*%
D12*
%TO.C,MX11*%
X59040000Y-66970000D03*
X52690000Y-69510000D03*
D10*
X61580000Y-72050000D03*
D11*
X56500000Y-72050000D03*
D10*
X51420000Y-72050000D03*
%TD*%
D13*
%TO.C,MT5*%
X153210000Y-40360000D03*
D14*
X153210000Y-35360000D03*
X167710000Y-40360000D03*
X167710000Y-35360000D03*
X167710000Y-37860000D03*
D15*
X160210000Y-43560000D03*
X160210000Y-32160000D03*
%TD*%
D10*
%TO.C,MX3*%
X108570000Y-33970000D03*
D11*
X113650000Y-33970000D03*
D10*
X118730000Y-33970000D03*
D12*
X109840000Y-31430000D03*
X116190000Y-28890000D03*
%TD*%
D10*
%TO.C,MX8*%
X108570000Y-53000000D03*
D11*
X113650000Y-53000000D03*
D10*
X118730000Y-53000000D03*
D12*
X109840000Y-50460000D03*
X116190000Y-47920000D03*
%TD*%
D10*
%TO.C,MX15*%
X127620000Y-72050000D03*
D11*
X132700000Y-72050000D03*
D10*
X137780000Y-72050000D03*
D12*
X128890000Y-69510000D03*
X135240000Y-66970000D03*
%TD*%
D10*
%TO.C,MX12*%
X70480000Y-72050000D03*
D11*
X75560000Y-72050000D03*
D10*
X80640000Y-72050000D03*
D12*
X71750000Y-69510000D03*
X78100000Y-66970000D03*
%TD*%
D10*
%TO.C,MX4*%
X127620000Y-33970000D03*
D11*
X132700000Y-33970000D03*
D10*
X137780000Y-33970000D03*
D12*
X128890000Y-31430000D03*
X135240000Y-28890000D03*
%TD*%
D16*
%TO.C,U1*%
X48285000Y-28300000D03*
X48285000Y-30840000D03*
D17*
X48285000Y-33380000D03*
X48285000Y-35920000D03*
D16*
X48285000Y-38460000D03*
X48285000Y-41000000D03*
X48285000Y-43540000D03*
X48285000Y-46080000D03*
X48285000Y-48620000D03*
X48285000Y-51160000D03*
X48285000Y-53700000D03*
X48285000Y-56240000D03*
X63525000Y-28300000D03*
D17*
X63525000Y-30840000D03*
D16*
X63525000Y-33380000D03*
X63525000Y-35920000D03*
X63525000Y-38460000D03*
X63525000Y-41000000D03*
X63525000Y-43540000D03*
X63525000Y-46080000D03*
X63525000Y-48620000D03*
X63525000Y-51160000D03*
X63525000Y-53700000D03*
X63525000Y-56240000D03*
%TD*%
D12*
%TO.C,MX6*%
X78100000Y-47920000D03*
X71750000Y-50460000D03*
D10*
X80640000Y-53000000D03*
D11*
X75560000Y-53000000D03*
D10*
X70480000Y-53000000D03*
%TD*%
%TO.C,MX1*%
X70480000Y-33970000D03*
D11*
X75560000Y-33970000D03*
D10*
X80640000Y-33970000D03*
D12*
X71750000Y-31430000D03*
X78100000Y-28890000D03*
%TD*%
D18*
%TO.C,RGB3*%
X97232500Y-37707500D03*
X97232500Y-39457500D03*
X91932500Y-39482500D03*
X91932500Y-37707500D03*
%TD*%
%TO.C,RGB4*%
X78192500Y-37707500D03*
X78192500Y-39457500D03*
X72892500Y-39482500D03*
X72892500Y-37707500D03*
%TD*%
D19*
%TO.C,D3*%
X119500000Y-26250000D03*
X119500000Y-29550000D03*
%TD*%
%TO.C,D7*%
X100450000Y-45302500D03*
X100450000Y-48602500D03*
%TD*%
%TO.C,D13*%
X100450000Y-64352500D03*
X100450000Y-67652500D03*
%TD*%
D20*
%TO.C,C10*%
X106170000Y-77562500D03*
X107130000Y-77562500D03*
%TD*%
D19*
%TO.C,D2*%
X100450000Y-26250000D03*
X100450000Y-29550000D03*
%TD*%
D18*
%TO.C,RGB6*%
X116282500Y-56737500D03*
X116282500Y-58487500D03*
X110982500Y-58512500D03*
X110982500Y-56737500D03*
%TD*%
D19*
%TO.C,D9*%
X138550000Y-45302500D03*
X138550000Y-48602500D03*
%TD*%
D18*
%TO.C,RGB9*%
X135332500Y-75787500D03*
X135332500Y-77537500D03*
X130032500Y-77562500D03*
X130032500Y-75787500D03*
%TD*%
D19*
%TO.C,D5*%
X153210000Y-30232500D03*
X153210000Y-33532500D03*
%TD*%
D18*
%TO.C,RGB11*%
X97232500Y-75787500D03*
X97232500Y-77537500D03*
X91932500Y-77562500D03*
X91932500Y-75787500D03*
%TD*%
%TO.C,RGB10*%
X116282500Y-75787500D03*
X116282500Y-77537500D03*
X110982500Y-77562500D03*
X110982500Y-75787500D03*
%TD*%
%TO.C,RGB5*%
X135332500Y-56737500D03*
X135332500Y-58487500D03*
X130032500Y-58512500D03*
X130032500Y-56737500D03*
%TD*%
D19*
%TO.C,D1*%
X81400000Y-26250000D03*
X81400000Y-29550000D03*
%TD*%
%TO.C,D15*%
X138550000Y-64352500D03*
X138550000Y-67652500D03*
%TD*%
D18*
%TO.C,RGB13*%
X59132500Y-75787500D03*
X59132500Y-77537500D03*
X53832500Y-77562500D03*
X53832500Y-75787500D03*
%TD*%
D20*
%TO.C,C9*%
X125220000Y-77562500D03*
X126180000Y-77562500D03*
%TD*%
%TO.C,C5*%
X69720000Y-58600000D03*
X70680000Y-58600000D03*
%TD*%
%TO.C,C1*%
X125220000Y-39482500D03*
X126180000Y-39482500D03*
%TD*%
D18*
%TO.C,RGB12*%
X78192500Y-75787500D03*
X78192500Y-77537500D03*
X72892500Y-77562500D03*
X72892500Y-75787500D03*
%TD*%
D21*
%TO.C,J1*%
X164000000Y-19500000D03*
X164000000Y-21500000D03*
X164000000Y-23500000D03*
D22*
X164000000Y-25500000D03*
%TD*%
D20*
%TO.C,C7*%
X106120000Y-58487500D03*
X107080000Y-58487500D03*
%TD*%
D19*
%TO.C,D6*%
X81400000Y-45302500D03*
X81400000Y-48602500D03*
%TD*%
%TO.C,D4*%
X138550000Y-26250000D03*
X138550000Y-29550000D03*
%TD*%
%TO.C,D8*%
X119500000Y-45302500D03*
X119500000Y-48602500D03*
%TD*%
D20*
%TO.C,C2*%
X106170000Y-39482500D03*
X107130000Y-39482500D03*
%TD*%
%TO.C,C8*%
X125160000Y-58487500D03*
X126120000Y-58487500D03*
%TD*%
D19*
%TO.C,D10*%
X153200000Y-60532500D03*
X153200000Y-63832500D03*
%TD*%
%TO.C,D14*%
X119500000Y-64352500D03*
X119500000Y-67652500D03*
%TD*%
D20*
%TO.C,C12*%
X68080000Y-77562500D03*
X69040000Y-77562500D03*
%TD*%
D19*
%TO.C,D12*%
X81400000Y-64352500D03*
X81400000Y-67652500D03*
%TD*%
%TO.C,D11*%
X62300000Y-64352500D03*
X62300000Y-67652500D03*
%TD*%
D18*
%TO.C,RGB1*%
X135332500Y-37707500D03*
X135332500Y-39457500D03*
X130032500Y-39482500D03*
X130032500Y-37707500D03*
%TD*%
D23*
%TO.C,C4*%
X70000000Y-39920000D03*
X70000000Y-40880000D03*
%TD*%
D20*
%TO.C,C3*%
X87120000Y-39482500D03*
X88080000Y-39482500D03*
%TD*%
D18*
%TO.C,RGB2*%
X116282500Y-37707500D03*
X116282500Y-39457500D03*
X110982500Y-39482500D03*
X110982500Y-37707500D03*
%TD*%
D20*
%TO.C,C11*%
X87120000Y-77562500D03*
X88080000Y-77562500D03*
%TD*%
D18*
%TO.C,RGB8*%
X78192500Y-56737500D03*
X78192500Y-58487500D03*
X72892500Y-58512500D03*
X72892500Y-56737500D03*
%TD*%
D20*
%TO.C,C6*%
X87070000Y-58487500D03*
X88030000Y-58487500D03*
%TD*%
D18*
%TO.C,RGB7*%
X97232500Y-56737500D03*
X97232500Y-58487500D03*
X91932500Y-58512500D03*
X91932500Y-56737500D03*
%TD*%
D23*
%TO.C,C13*%
X51000000Y-77020000D03*
X51000000Y-77980000D03*
%TD*%
M02*
