%TF.GenerationSoftware,KiCad,Pcbnew,7.0.2*%
%TF.CreationDate,2023-08-21T12:10:16-07:00*%
%TF.ProjectId,Macropad_Project,4d616372-6f70-4616-945f-50726f6a6563,rev?*%
%TF.SameCoordinates,Original*%
%TF.FileFunction,Paste,Bot*%
%TF.FilePolarity,Positive*%
%FSLAX46Y46*%
G04 Gerber Fmt 4.6, Leading zero omitted, Abs format (unit mm)*
G04 Created by KiCad (PCBNEW 7.0.2) date 2023-08-21 12:10:16*
%MOMM*%
%LPD*%
G01*
G04 APERTURE LIST*
G04 Aperture macros list*
%AMRoundRect*
0 Rectangle with rounded corners*
0 $1 Rounding radius*
0 $2 $3 $4 $5 $6 $7 $8 $9 X,Y pos of 4 corners*
0 Add a 4 corners polygon primitive as box body*
4,1,4,$2,$3,$4,$5,$6,$7,$8,$9,$2,$3,0*
0 Add four circle primitives for the rounded corners*
1,1,$1+$1,$2,$3*
1,1,$1+$1,$4,$5*
1,1,$1+$1,$6,$7*
1,1,$1+$1,$8,$9*
0 Add four rect primitives between the rounded corners*
20,1,$1+$1,$2,$3,$4,$5,0*
20,1,$1+$1,$4,$5,$6,$7,0*
20,1,$1+$1,$6,$7,$8,$9,0*
20,1,$1+$1,$8,$9,$2,$3,0*%
G04 Aperture macros list end*
%ADD10R,1.600000X0.850000*%
%ADD11RoundRect,0.225000X-0.375000X0.225000X-0.375000X-0.225000X0.375000X-0.225000X0.375000X0.225000X0*%
%ADD12RoundRect,0.140000X-0.140000X-0.170000X0.140000X-0.170000X0.140000X0.170000X-0.140000X0.170000X0*%
%ADD13RoundRect,0.140000X-0.170000X0.140000X-0.170000X-0.140000X0.170000X-0.140000X0.170000X0.140000X0*%
G04 APERTURE END LIST*
D10*
%TO.C,RGB3*%
X97232500Y-37707500D03*
X97232500Y-39457500D03*
X91932500Y-39482500D03*
X91932500Y-37707500D03*
%TD*%
%TO.C,RGB4*%
X78192500Y-37707500D03*
X78192500Y-39457500D03*
X72892500Y-39482500D03*
X72892500Y-37707500D03*
%TD*%
D11*
%TO.C,D3*%
X119500000Y-26250000D03*
X119500000Y-29550000D03*
%TD*%
%TO.C,D7*%
X100450000Y-45302500D03*
X100450000Y-48602500D03*
%TD*%
%TO.C,D13*%
X100450000Y-64352500D03*
X100450000Y-67652500D03*
%TD*%
D12*
%TO.C,C10*%
X106170000Y-77562500D03*
X107130000Y-77562500D03*
%TD*%
D11*
%TO.C,D2*%
X100450000Y-26250000D03*
X100450000Y-29550000D03*
%TD*%
D10*
%TO.C,RGB6*%
X116282500Y-56737500D03*
X116282500Y-58487500D03*
X110982500Y-58512500D03*
X110982500Y-56737500D03*
%TD*%
D11*
%TO.C,D9*%
X138550000Y-45302500D03*
X138550000Y-48602500D03*
%TD*%
D10*
%TO.C,RGB9*%
X135332500Y-75787500D03*
X135332500Y-77537500D03*
X130032500Y-77562500D03*
X130032500Y-75787500D03*
%TD*%
D11*
%TO.C,D5*%
X153210000Y-30232500D03*
X153210000Y-33532500D03*
%TD*%
D10*
%TO.C,RGB11*%
X97232500Y-75787500D03*
X97232500Y-77537500D03*
X91932500Y-77562500D03*
X91932500Y-75787500D03*
%TD*%
%TO.C,RGB10*%
X116282500Y-75787500D03*
X116282500Y-77537500D03*
X110982500Y-77562500D03*
X110982500Y-75787500D03*
%TD*%
%TO.C,RGB5*%
X135332500Y-56737500D03*
X135332500Y-58487500D03*
X130032500Y-58512500D03*
X130032500Y-56737500D03*
%TD*%
D11*
%TO.C,D1*%
X81400000Y-26250000D03*
X81400000Y-29550000D03*
%TD*%
%TO.C,D15*%
X138550000Y-64352500D03*
X138550000Y-67652500D03*
%TD*%
D10*
%TO.C,RGB13*%
X59132500Y-75787500D03*
X59132500Y-77537500D03*
X53832500Y-77562500D03*
X53832500Y-75787500D03*
%TD*%
D12*
%TO.C,C9*%
X125220000Y-77562500D03*
X126180000Y-77562500D03*
%TD*%
%TO.C,C5*%
X69720000Y-58600000D03*
X70680000Y-58600000D03*
%TD*%
%TO.C,C1*%
X125220000Y-39482500D03*
X126180000Y-39482500D03*
%TD*%
D10*
%TO.C,RGB12*%
X78192500Y-75787500D03*
X78192500Y-77537500D03*
X72892500Y-77562500D03*
X72892500Y-75787500D03*
%TD*%
D12*
%TO.C,C7*%
X106120000Y-58487500D03*
X107080000Y-58487500D03*
%TD*%
D11*
%TO.C,D6*%
X81400000Y-45302500D03*
X81400000Y-48602500D03*
%TD*%
%TO.C,D4*%
X138550000Y-26250000D03*
X138550000Y-29550000D03*
%TD*%
%TO.C,D8*%
X119500000Y-45302500D03*
X119500000Y-48602500D03*
%TD*%
D12*
%TO.C,C2*%
X106170000Y-39482500D03*
X107130000Y-39482500D03*
%TD*%
%TO.C,C8*%
X125160000Y-58487500D03*
X126120000Y-58487500D03*
%TD*%
D11*
%TO.C,D10*%
X153200000Y-60532500D03*
X153200000Y-63832500D03*
%TD*%
%TO.C,D14*%
X119500000Y-64352500D03*
X119500000Y-67652500D03*
%TD*%
D12*
%TO.C,C12*%
X68080000Y-77562500D03*
X69040000Y-77562500D03*
%TD*%
D11*
%TO.C,D12*%
X81400000Y-64352500D03*
X81400000Y-67652500D03*
%TD*%
%TO.C,D11*%
X62300000Y-64352500D03*
X62300000Y-67652500D03*
%TD*%
D10*
%TO.C,RGB1*%
X135332500Y-37707500D03*
X135332500Y-39457500D03*
X130032500Y-39482500D03*
X130032500Y-37707500D03*
%TD*%
D13*
%TO.C,C4*%
X70000000Y-39920000D03*
X70000000Y-40880000D03*
%TD*%
D12*
%TO.C,C3*%
X87120000Y-39482500D03*
X88080000Y-39482500D03*
%TD*%
D10*
%TO.C,RGB2*%
X116282500Y-37707500D03*
X116282500Y-39457500D03*
X110982500Y-39482500D03*
X110982500Y-37707500D03*
%TD*%
D12*
%TO.C,C11*%
X87120000Y-77562500D03*
X88080000Y-77562500D03*
%TD*%
D10*
%TO.C,RGB8*%
X78192500Y-56737500D03*
X78192500Y-58487500D03*
X72892500Y-58512500D03*
X72892500Y-56737500D03*
%TD*%
D12*
%TO.C,C6*%
X87070000Y-58487500D03*
X88030000Y-58487500D03*
%TD*%
D10*
%TO.C,RGB7*%
X97232500Y-56737500D03*
X97232500Y-58487500D03*
X91932500Y-58512500D03*
X91932500Y-56737500D03*
%TD*%
D13*
%TO.C,C13*%
X51000000Y-77020000D03*
X51000000Y-77980000D03*
%TD*%
M02*
