%TF.GenerationSoftware,KiCad,Pcbnew,7.0.2*%
%TF.CreationDate,2023-08-21T12:10:16-07:00*%
%TF.ProjectId,Macropad_Project,4d616372-6f70-4616-945f-50726f6a6563,rev?*%
%TF.SameCoordinates,Original*%
%TF.FileFunction,Profile,NP*%
%FSLAX46Y46*%
G04 Gerber Fmt 4.6, Leading zero omitted, Abs format (unit mm)*
G04 Created by KiCad (PCBNEW 7.0.2) date 2023-08-21 12:10:16*
%MOMM*%
%LPD*%
G01*
G04 APERTURE LIST*
%TA.AperFunction,Profile*%
%ADD10C,0.100000*%
%TD*%
%TA.AperFunction,Profile*%
%ADD11C,0.050000*%
%TD*%
G04 APERTURE END LIST*
D10*
X42750000Y-16500000D02*
X172750000Y-16500000D01*
X172750000Y-82600000D01*
X42750000Y-82600000D01*
X42750000Y-16500000D01*
X46250000Y-18750000D02*
G75*
G03*
X46250000Y-18750000I-1250000J0D01*
G01*
X46250000Y-80335000D02*
G75*
G03*
X46250000Y-80335000I-1250000J0D01*
G01*
X171750000Y-80335000D02*
G75*
G03*
X171750000Y-80335000I-1250000J0D01*
G01*
X171750000Y-18750000D02*
G75*
G03*
X171750000Y-18750000I-1250000J0D01*
G01*
D11*
%TO.C,RGB3*%
X96332500Y-37032500D02*
X92832500Y-37032500D01*
X92832500Y-37032500D02*
X92832500Y-40132500D01*
X92832500Y-40132500D02*
X96332500Y-40132500D01*
X96332500Y-40132500D02*
X96332500Y-37032500D01*
%TO.C,RGB4*%
X77292500Y-37032500D02*
X73792500Y-37032500D01*
X73792500Y-37032500D02*
X73792500Y-40132500D01*
X73792500Y-40132500D02*
X77292500Y-40132500D01*
X77292500Y-40132500D02*
X77292500Y-37032500D01*
%TO.C,RGB6*%
X115382500Y-56062500D02*
X111882500Y-56062500D01*
X111882500Y-56062500D02*
X111882500Y-59162500D01*
X111882500Y-59162500D02*
X115382500Y-59162500D01*
X115382500Y-59162500D02*
X115382500Y-56062500D01*
%TO.C,RGB9*%
X134432500Y-75112500D02*
X130932500Y-75112500D01*
X130932500Y-75112500D02*
X130932500Y-78212500D01*
X130932500Y-78212500D02*
X134432500Y-78212500D01*
X134432500Y-78212500D02*
X134432500Y-75112500D01*
%TO.C,RGB11*%
X96332500Y-75112500D02*
X92832500Y-75112500D01*
X92832500Y-75112500D02*
X92832500Y-78212500D01*
X92832500Y-78212500D02*
X96332500Y-78212500D01*
X96332500Y-78212500D02*
X96332500Y-75112500D01*
%TO.C,RGB10*%
X115382500Y-75112500D02*
X111882500Y-75112500D01*
X111882500Y-75112500D02*
X111882500Y-78212500D01*
X111882500Y-78212500D02*
X115382500Y-78212500D01*
X115382500Y-78212500D02*
X115382500Y-75112500D01*
%TO.C,RGB5*%
X134432500Y-56062500D02*
X130932500Y-56062500D01*
X130932500Y-56062500D02*
X130932500Y-59162500D01*
X130932500Y-59162500D02*
X134432500Y-59162500D01*
X134432500Y-59162500D02*
X134432500Y-56062500D01*
%TO.C,RGB13*%
X58232500Y-75112500D02*
X54732500Y-75112500D01*
X54732500Y-75112500D02*
X54732500Y-78212500D01*
X54732500Y-78212500D02*
X58232500Y-78212500D01*
X58232500Y-78212500D02*
X58232500Y-75112500D01*
%TO.C,RGB12*%
X77292500Y-75112500D02*
X73792500Y-75112500D01*
X73792500Y-75112500D02*
X73792500Y-78212500D01*
X73792500Y-78212500D02*
X77292500Y-78212500D01*
X77292500Y-78212500D02*
X77292500Y-75112500D01*
%TO.C,RGB1*%
X134432500Y-37032500D02*
X130932500Y-37032500D01*
X130932500Y-37032500D02*
X130932500Y-40132500D01*
X130932500Y-40132500D02*
X134432500Y-40132500D01*
X134432500Y-40132500D02*
X134432500Y-37032500D01*
%TO.C,RGB2*%
X115382500Y-37032500D02*
X111882500Y-37032500D01*
X111882500Y-37032500D02*
X111882500Y-40132500D01*
X111882500Y-40132500D02*
X115382500Y-40132500D01*
X115382500Y-40132500D02*
X115382500Y-37032500D01*
%TO.C,RGB8*%
X77292500Y-56062500D02*
X73792500Y-56062500D01*
X73792500Y-56062500D02*
X73792500Y-59162500D01*
X73792500Y-59162500D02*
X77292500Y-59162500D01*
X77292500Y-59162500D02*
X77292500Y-56062500D01*
%TO.C,RGB7*%
X96332500Y-56062500D02*
X92832500Y-56062500D01*
X92832500Y-56062500D02*
X92832500Y-59162500D01*
X92832500Y-59162500D02*
X96332500Y-59162500D01*
X96332500Y-59162500D02*
X96332500Y-56062500D01*
%TD*%
M02*
